<svg width="200" height="200" viewBox="0 0 200 200" fill="none" xmlns="http://www.w3.org/2000/svg">
<path d="M153.659 26.8295C156.357 29.5123 160.716 29.5123 163.415 26.8295L173.171 36.5855C170.476 39.2796 170.476 43.6473 173.171 46.3415C175.865 49.0357 180.232 49.0357 182.927 46.3415L200 63.4145L63.4145 200L46.3415 182.927C49.0356 180.233 49.0356 175.865 46.3415 173.171C43.6473 170.477 39.2796 170.477 36.5855 173.171L26.8294 163.415C29.5236 160.721 29.5236 156.353 26.8294 153.659C24.1353 150.965 19.7676 150.965 17.0734 153.659L0 136.585L136.585 0L153.659 17.073C150.976 19.7719 150.976 24.1306 153.659 26.8295Z" fill="#71C285"/>
<path d="M19.5278 140.046C18.606 140.043 17.7241 139.67 17.0786 139.012C16.4308 138.376 16.0697 137.504 16.0783 136.596C16.0689 135.679 16.4296 134.796 17.0786 134.147C17.7159 133.488 18.5931 133.116 19.5098 133.116C20.4265 133.116 21.3037 133.488 21.941 134.147C22.2743 134.453 22.5337 134.83 22.7006 135.25C22.8745 135.678 22.9679 136.134 22.9768 136.596C22.9714 137.047 22.8776 137.492 22.7006 137.907C22.5333 138.327 22.2739 138.705 21.941 139.012C21.3099 139.669 20.439 140.042 19.5278 140.046Z" fill="#4C8056"/>
<path d="M136.597 22.9768C135.675 22.9736 134.793 22.6005 134.148 21.9409C133.5 21.306 133.139 20.4346 133.148 19.5273C133.138 18.6098 133.499 17.7272 134.148 17.0781C135.511 15.7836 137.649 15.7836 139.012 17.0781C139.67 17.7232 140.043 18.6055 140.046 19.5273C140 21.413 138.482 22.9307 136.597 22.9768Z" fill="#4C8056"/>
<path d="M34.1322 136.591L41.4493 129.274C42.7961 127.927 44.9804 127.927 46.3273 129.274L65.8397 148.786C67.1866 150.133 67.1866 152.317 65.8397 153.664L58.5227 160.981C57.1758 162.328 54.9916 162.328 53.6447 160.981L34.1322 141.469C32.7853 140.122 32.7853 137.938 34.1322 136.591Z" fill="#5E5F62"/>
<path d="M56.112 114.645L63.429 107.328C64.7759 105.981 66.9602 105.981 68.307 107.328L87.8195 126.84C89.1664 128.187 89.1664 130.371 87.8195 131.718L80.5025 139.035C79.1556 140.382 76.9713 140.382 75.6245 139.035L56.112 119.523C54.7647 118.176 54.7647 115.992 56.112 114.645Z" fill="#5E5F62"/>
<path d="M78.0502 92.6861L85.3672 85.3691C86.7141 84.0222 88.8983 84.0222 90.2452 85.3691L109.758 104.881C111.105 106.228 111.105 108.413 109.758 109.76L102.441 117.077C101.094 118.423 98.9095 118.423 97.5626 117.077L78.0502 97.5641C76.7033 96.2172 76.7033 94.033 78.0502 92.6861Z" fill="#5E5F62"/>
<path d="M160.984 58.5393L156.12 63.4028L151.222 68.3008L146.358 73.1643L141.461 78.0623L136.597 82.9258L124.386 95.1365C123.742 95.7824 122.867 96.1454 121.955 96.1454C121.042 96.1454 120.168 95.7824 119.523 95.1365L100 75.6135C98.6549 74.258 98.6549 72.071 100 70.7155L136.597 34.1531C137.242 33.5072 138.117 33.1442 139.029 33.1442C139.941 33.1442 140.816 33.5072 141.461 34.1531L160.984 53.6417C162.329 54.9968 162.329 57.1838 160.984 58.5393Z" fill="#ECF0F1"/>
<path d="M156.119 63.4028L151.221 68.3008L146.358 63.4028C145.697 62.7667 145.323 61.8887 145.323 60.9712C145.323 60.0538 145.697 59.1758 146.358 58.5397C147.002 57.8938 147.877 57.5308 148.79 57.5308C149.702 57.5308 150.577 57.8938 151.221 58.5397L156.119 63.4028Z" fill="#5E5F62"/>
<path d="M146.358 73.1643L141.46 78.0622L136.596 73.1643C135.728 72.2957 135.388 71.0293 135.706 69.8426C136.024 68.6559 136.951 67.7287 138.138 67.411C139.324 67.093 140.591 67.4325 141.459 68.3011L146.358 73.1643Z" fill="#5E5F62"/>
<path d="M136.597 82.9262L131.699 87.8241L126.835 82.9262C125.967 82.0576 125.627 80.7912 125.945 79.6045C126.263 78.4178 127.19 77.4906 128.377 77.1729C129.564 76.8549 130.83 77.1944 131.699 78.063L136.597 82.9262Z" fill="#5E5F62"/>
<path d="M119.511 74.181C118.116 74.1806 116.859 73.3401 116.325 72.0515C115.791 70.7628 116.086 69.2795 117.073 68.2929L126.829 58.5377C127.701 57.6663 128.971 57.326 130.161 57.6448C131.351 57.9637 132.281 58.8933 132.599 60.0835C132.918 61.2736 132.578 62.5436 131.707 63.4149L121.95 73.1701C121.304 73.8184 120.426 74.1818 119.511 74.181Z" fill="#A5A5A4"/>
<path d="M139.011 54.6756C137.611 54.6795 136.349 53.8347 135.818 52.5394C135.288 51.2441 135.595 49.7562 136.596 48.7774C137.95 47.4621 140.105 47.4621 141.46 48.7774C141.781 49.0927 142.039 49.4674 142.218 49.8804C142.382 50.3099 142.464 50.7663 142.46 51.2262C142.463 52.1424 142.103 53.0228 141.46 53.6753C140.799 54.3052 139.925 54.6623 139.011 54.6756Z" fill="#A5A5A4"/>
<path d="M63.4023 199.991L73.1582 190.235L63.4023 180.479L53.6464 190.235L63.4023 199.991Z" fill="#B19046"/>
<path d="M73.1619 190.228L190.229 73.1602L180.473 63.404L63.4058 180.472L73.1619 190.228Z" fill="#E4C05C"/>
<path d="M190.233 73.1647L199.986 63.4113L190.233 53.6578L180.479 63.4113L190.233 73.1647Z" fill="#B19046"/>
</svg>
