<svg width="200" height="200" viewBox="0 0 200 200" fill="none" xmlns="http://www.w3.org/2000/svg">
<path d="M162.069 0H37.9307C34.1264 0.0109375 31.0451 3.09219 31.0342 6.89648V193.104C31.0455 196.908 34.1264 199.989 37.9307 200H162.069C165.873 199.989 168.954 196.908 168.965 193.104V6.89648C168.954 3.09219 165.873 0.0109375 162.069 0Z" fill="#7F8C8D"/>
<path d="M127.586 13.793V24.1379C127.58 26.0398 126.04 27.5805 124.137 27.5863H62.0686C60.1666 27.5805 58.626 26.0402 58.6201 24.1379V13.793H127.586Z" fill="#95A5A5"/>
<path d="M127.586 0H58.6201V13.793H127.586V0Z" fill="#B19046"/>
<path d="M44.8274 17.2414C44.5958 17.2351 44.3653 17.2121 44.1372 17.1722C43.9216 17.134 43.713 17.064 43.5177 16.9652C43.297 16.8894 43.0876 16.7847 42.8946 16.6539C42.7228 16.5172 42.5513 16.3793 42.3794 16.2414C42.0677 15.9117 41.822 15.5254 41.6552 15.1031C41.2868 14.2679 41.2868 13.3168 41.6552 12.4816C41.8134 12.0558 42.0603 11.6683 42.3794 11.3449C42.5423 11.1961 42.7145 11.0578 42.8946 10.9308C43.0876 10.8 43.297 10.6949 43.5177 10.6195C43.7126 10.5203 43.9216 10.4511 44.1372 10.414C44.579 10.3097 45.0392 10.3097 45.481 10.414C45.7099 10.4457 45.9317 10.5152 46.1376 10.6195C46.3571 10.6953 46.5653 10.8 46.7571 10.9308C46.9384 11.0578 47.1118 11.1961 47.2759 11.3449C47.588 11.6738 47.8337 12.0597 48.0001 12.4812C48.3685 13.3164 48.3685 14.2676 48.0001 15.1027C47.8333 15.5246 47.5876 15.9109 47.2759 16.241C47.104 16.3789 46.929 16.5172 46.7571 16.6535C46.5653 16.7843 46.3571 16.889 46.1376 16.9648C45.9313 17.0687 45.7095 17.1386 45.481 17.1718C45.2649 17.2117 45.0466 17.2351 44.8274 17.2414Z" fill="#5E5F62"/>
<path d="M155.172 17.2414C154.94 17.2351 154.71 17.2121 154.482 17.1722C154.266 17.134 154.057 17.064 153.862 16.9652C153.641 16.8894 153.432 16.7847 153.239 16.6539C153.067 16.5172 152.896 16.3793 152.724 16.2414C151.39 14.8816 151.39 12.7047 152.724 11.3453C153.71 10.3508 155.2 10.0515 156.494 10.5887C157.788 11.1258 158.628 12.3922 158.62 13.7933C158.607 14.7062 158.25 15.5801 157.62 16.2418C157.448 16.3797 157.273 16.5179 157.102 16.6543C156.91 16.7851 156.702 16.8898 156.482 16.9656C156.276 17.0695 156.054 17.1394 155.825 17.1726C155.61 17.2121 155.391 17.2351 155.172 17.2414Z" fill="#5E5F62"/>
<path d="M44.8274 189.655C44.5958 189.649 44.3653 189.626 44.1372 189.586C43.9216 189.548 43.713 189.478 43.5177 189.379C43.297 189.303 43.0876 189.198 42.8946 189.068C42.7145 188.941 42.5423 188.803 42.3794 188.655C42.0606 188.331 41.8138 187.943 41.6552 187.517C41.2868 186.682 41.2868 185.73 41.6552 184.895C41.8216 184.473 42.0673 184.088 42.3794 183.759L42.8946 183.345C43.0876 183.214 43.297 183.109 43.5177 183.034C43.7126 182.934 43.9216 182.865 44.1372 182.828C44.579 182.724 45.0392 182.724 45.481 182.828C45.7099 182.86 45.9317 182.929 46.1376 183.034C46.3571 183.109 46.5653 183.214 46.7571 183.345C46.929 183.483 47.104 183.621 47.2759 183.759C47.5802 184.094 47.8251 184.478 48.0001 184.895C48.3685 185.73 48.3685 186.682 48.0001 187.517C47.8333 187.939 47.5876 188.325 47.2759 188.655C47.1118 188.803 46.9388 188.941 46.7571 189.068C46.5653 189.198 46.3571 189.303 46.1376 189.379C45.9313 189.483 45.7095 189.553 45.481 189.586C45.2649 189.626 45.0466 189.649 44.8274 189.655Z" fill="#5E5F62"/>
<path d="M155.172 189.655C154.258 189.648 153.381 189.291 152.724 188.655C151.385 187.306 151.391 185.127 152.737 183.785C154.083 182.443 156.261 182.443 157.607 183.785C158.953 185.127 158.959 187.306 157.62 188.655C156.962 189.29 156.086 189.647 155.172 189.655Z" fill="#5E5F62"/>
<path d="M151.723 44.8277V168.966C151.718 170.868 150.177 172.408 148.275 172.414H68.9648L134.482 41.3796H148.275C150.177 41.3851 151.718 42.9253 151.723 44.8277Z" fill="#285680"/>
<path d="M134.482 41.3793L68.9652 172.414H51.7238C49.8219 172.408 48.2812 170.868 48.2754 168.965V44.8277C48.2812 42.9258 49.8215 41.3851 51.7238 41.3793H134.482Z" fill="#4482C3"/>
<path d="M65.5168 55.1722H79.3098C81.2141 55.1722 82.7582 56.716 82.7582 58.6207V82.7586C82.7582 84.6629 81.2145 86.207 79.3098 86.207H65.5168C63.6125 86.207 62.0684 84.6633 62.0684 82.7586V58.6207C62.0687 56.7164 63.6125 55.1722 65.5168 55.1722Z" fill="#ECF0F1"/>
<path d="M86.207 0H72.4141V13.793H86.207V0Z" fill="#E4C05C"/>
<path d="M113.793 0H100V13.793H113.793V0Z" fill="#E4C05C"/>
</svg>
