<svg width="200" height="200" viewBox="0 0 200 200" fill="none" xmlns="http://www.w3.org/2000/svg">
<path d="M13.793 0H186.207C193.825 0 200 6.17539 200 13.793V186.207C200 193.825 193.825 200 186.207 200H13.793C6.17539 200 0 193.825 0 186.207V13.793C0 6.17539 6.17539 0 13.793 0Z" fill="#A5A5A4"/>
<path d="M100 186.207C147.611 186.207 186.207 147.611 186.207 100C186.207 52.3892 147.611 13.793 100 13.793C52.3892 13.793 13.793 52.3892 13.793 100C13.793 147.611 52.3892 186.207 100 186.207Z" fill="#5E5F62"/>
<path d="M99.9996 172.414C139.993 172.414 172.413 139.993 172.413 100C172.413 60.007 139.993 27.5863 99.9996 27.5863C60.0066 27.5863 27.5859 60.007 27.5859 100C27.5859 139.993 60.0066 172.414 99.9996 172.414Z" fill="#285680"/>
<path d="M145.586 139.276L145.621 139.31L128.621 151.586C124.724 149.62 104.725 138.552 100.311 117.931C81.6551 128.414 77.3449 151.344 76.7246 155.517H76.6902L59.7941 143.138C60.484 138.828 64.7594 116.379 83.0699 105.828C67.2766 91.3105 44.1734 94.3105 40.0352 95H40L46.5172 75.0691C50.8621 74.414 73.4828 71.5867 89.207 85.6554C98.1379 66.207 88.1727 45.1382 86.207 41.414V41.3796L107.173 41.4488C109.138 45.3453 118.862 66.0003 110.276 85.3109C131.552 87.7593 148.518 71.7937 151.448 68.7937L151.482 68.7593L157.896 88.725C154.827 91.7941 138.104 107.449 117.103 105.242C121.379 126.241 141.828 137.414 145.586 139.276Z" fill="#4482C3"/>
<path d="M99.9963 117.241C109.518 117.241 117.238 109.522 117.238 100C117.238 90.4778 109.518 82.7585 99.9963 82.7585C90.4741 82.7585 82.7549 90.4778 82.7549 100C82.7549 109.522 90.4741 117.241 99.9963 117.241Z" fill="#E6E7E8"/>
<path d="M20.6904 27.5863C24.4993 27.5863 27.5869 24.4986 27.5869 20.6898C27.5869 16.881 24.4993 13.7933 20.6904 13.7933C16.8816 13.7933 13.7939 16.881 13.7939 20.6898C13.7939 24.4986 16.8816 27.5863 20.6904 27.5863Z" fill="#5E5F62"/>
<path d="M20.6904 186.207C24.4993 186.207 27.5869 183.119 27.5869 179.31C27.5869 175.501 24.4993 172.414 20.6904 172.414C16.8816 172.414 13.7939 175.501 13.7939 179.31C13.7939 183.119 16.8816 186.207 20.6904 186.207Z" fill="#5E5F62"/>
<path d="M179.311 27.5863C183.119 27.5863 186.207 24.4986 186.207 20.6898C186.207 16.881 183.119 13.7933 179.311 13.7933C175.502 13.7933 172.414 16.881 172.414 20.6898C172.414 24.4986 175.502 27.5863 179.311 27.5863Z" fill="#5E5F62"/>
<path d="M179.311 186.207C183.119 186.207 186.207 183.119 186.207 179.31C186.207 175.501 183.119 172.414 179.311 172.414C175.502 172.414 172.414 175.501 172.414 179.31C172.414 183.119 175.502 186.207 179.311 186.207Z" fill="#5E5F62"/>
</svg>
