<svg width="200" height="200" viewBox="0 0 200 200" fill="none" xmlns="http://www.w3.org/2000/svg">
<g clip-path="url(#clip0)">
<path d="M3.44844 0H196.552C198.456 0 200 1.54375 200 3.44844V196.552C200 198.456 198.456 200 196.552 200H3.44844C1.54375 200 0 198.456 0 196.552V3.44844C0 1.54375 1.54375 0 3.44844 0Z" fill="#527F72"/>
<path d="M44.8273 34.4828C43.9129 34.4832 43.0355 34.1199 42.3887 33.473C41.7418 32.8262 41.3789 31.9492 41.3789 31.0344V17.2414C41.3789 15.3371 42.9227 13.793 44.8273 13.793C46.7316 13.793 48.2758 15.3367 48.2758 17.2414V31.0344C48.2762 31.9488 47.9129 32.8262 47.266 33.473C46.6191 34.1199 45.7418 34.4828 44.8273 34.4828Z" fill="#E4C05C"/>
<path d="M58.6213 34.4828C57.7068 34.4832 56.8295 34.1199 56.1826 33.473C55.5357 32.8262 55.1729 31.9492 55.1729 31.0344V17.2414C55.1729 15.3371 56.7166 13.793 58.6213 13.793C60.526 13.793 62.0697 15.3367 62.0697 17.2414V31.0344C62.0701 31.9488 61.7068 32.8262 61.06 33.473C60.4131 34.1199 59.5357 34.4828 58.6213 34.4828Z" fill="#E4C05C"/>
<path d="M72.4133 34.4828C71.4988 34.4832 70.6215 34.1199 69.9746 33.473C69.3277 32.8262 68.9648 31.9492 68.9648 31.0344V17.2414C68.9648 15.3371 70.5086 13.793 72.4133 13.793C74.3176 13.793 75.8617 15.3367 75.8617 17.2414V31.0344C75.8621 31.9488 75.4988 32.8262 74.852 33.473C74.2051 34.1199 73.3281 34.4828 72.4133 34.4828Z" fill="#E4C05C"/>
<path d="M86.2072 34.4828C85.2928 34.4832 84.4154 34.1199 83.7686 33.473C83.1217 32.8262 82.7588 31.9492 82.7588 31.0344V17.2414C82.7588 15.3371 84.3025 13.793 86.2072 13.793C88.1119 13.793 89.6557 15.3367 89.6557 17.2414V31.0344C89.6561 31.9488 89.2928 32.8262 88.6459 33.473C87.999 34.1199 87.1217 34.4828 86.2072 34.4828Z" fill="#E4C05C"/>
<path d="M100 34.4828C99.0857 34.4832 98.2084 34.1199 97.5615 33.473C96.9147 32.8262 96.5518 31.9492 96.5518 31.0344V17.2414C96.5518 15.3371 98.0955 13.793 100 13.793C101.905 13.793 103.449 15.3367 103.449 17.2414V31.0344C103.449 31.9488 103.086 32.8262 102.439 33.473C101.792 34.1199 100.915 34.4828 100 34.4828Z" fill="#E4C05C"/>
<path d="M113.793 34.4828C112.879 34.4832 112.001 34.1199 111.354 33.473C110.708 32.8262 110.345 31.9492 110.345 31.0344V17.2414C110.345 15.3371 111.888 13.793 113.793 13.793C115.698 13.793 117.242 15.3367 117.242 17.2414V31.0344C117.242 31.9488 116.879 32.8262 116.232 33.473C115.585 34.1199 114.708 34.4828 113.793 34.4828Z" fill="#E4C05C"/>
<path d="M127.586 34.4828C126.672 34.4832 125.794 34.1199 125.147 33.473C124.501 32.8262 124.138 31.9492 124.138 31.0344V17.2414C124.138 15.3371 125.681 13.793 127.586 13.793C129.491 13.793 131.035 15.3367 131.035 17.2414V31.0344C131.035 31.9488 130.672 32.8262 130.025 33.473C129.378 34.1199 128.501 34.4828 127.586 34.4828Z" fill="#E4C05C"/>
<path d="M141.379 34.4828C140.465 34.4832 139.587 34.1199 138.94 33.473C138.294 32.8262 137.931 31.9492 137.931 31.0344V17.2414C137.931 15.3371 139.474 13.793 141.379 13.793C143.284 13.793 144.828 15.3367 144.828 17.2414V31.0344C144.828 31.9488 144.465 32.8262 143.818 33.473C143.171 34.1199 142.294 34.4828 141.379 34.4828Z" fill="#E4C05C"/>
<path d="M155.172 34.4828C154.258 34.4832 153.38 34.1199 152.733 33.473C152.087 32.8262 151.724 31.9492 151.724 31.0344V17.2414C151.724 15.3371 153.267 13.793 155.172 13.793C157.076 13.793 158.621 15.3367 158.621 17.2414V31.0344C158.621 31.9488 158.258 32.8262 157.611 33.473C156.964 34.1199 156.087 34.4828 155.172 34.4828Z" fill="#E4C05C"/>
<path d="M44.8273 186.207C43.9129 186.207 43.0355 185.844 42.3887 185.197C41.7418 184.55 41.3789 183.673 41.3789 182.759V168.966C41.3789 167.061 42.9227 165.517 44.8273 165.517C46.7316 165.517 48.2758 167.061 48.2758 168.966V182.759C48.2762 183.673 47.9129 184.55 47.266 185.197C46.6191 185.844 45.7418 186.207 44.8273 186.207Z" fill="#E4C05C"/>
<path d="M58.6213 186.207C57.7068 186.207 56.8295 185.844 56.1826 185.197C55.5357 184.55 55.1729 183.673 55.1729 182.759V168.966C55.1729 167.061 56.7166 165.517 58.6213 165.517C60.526 165.517 62.0697 167.061 62.0697 168.966V182.759C62.0701 183.673 61.7068 184.55 61.06 185.197C60.4131 185.844 59.5357 186.207 58.6213 186.207Z" fill="#E4C05C"/>
<path d="M72.4133 186.207C71.4988 186.207 70.6215 185.844 69.9746 185.197C69.3277 184.55 68.9648 183.673 68.9648 182.759V168.966C68.9648 167.061 70.5086 165.517 72.4133 165.517C74.3176 165.517 75.8617 167.061 75.8617 168.966V182.759C75.8621 183.673 75.4988 184.55 74.852 185.197C74.2051 185.844 73.3281 186.207 72.4133 186.207Z" fill="#E4C05C"/>
<path d="M86.2072 186.207C85.2928 186.207 84.4154 185.844 83.7686 185.197C83.1217 184.55 82.7588 183.673 82.7588 182.759V168.966C82.7588 167.061 84.3025 165.517 86.2072 165.517C88.1119 165.517 89.6557 167.061 89.6557 168.966V182.759C89.6561 183.673 89.2928 184.55 88.6459 185.197C87.999 185.844 87.1217 186.207 86.2072 186.207Z" fill="#E4C05C"/>
<path d="M100 186.207C99.0857 186.207 98.2084 185.844 97.5615 185.197C96.9147 184.55 96.5518 183.673 96.5518 182.759V168.966C96.5518 167.061 98.0955 165.517 100 165.517C101.905 165.517 103.449 167.061 103.449 168.966V182.759C103.449 183.673 103.086 184.55 102.439 185.197C101.792 185.844 100.915 186.207 100 186.207Z" fill="#E4C05C"/>
<path d="M113.793 186.207C112.879 186.207 112.001 185.844 111.354 185.197C110.708 184.55 110.345 183.673 110.345 182.759V168.966C110.345 167.061 111.888 165.517 113.793 165.517C115.698 165.517 117.242 167.061 117.242 168.966V182.759C117.242 183.673 116.879 184.55 116.232 185.197C115.585 185.844 114.708 186.207 113.793 186.207Z" fill="#E4C05C"/>
<path d="M127.586 186.207C126.672 186.207 125.794 185.844 125.147 185.197C124.501 184.55 124.138 183.673 124.138 182.759V168.966C124.138 167.061 125.681 165.517 127.586 165.517C129.491 165.517 131.035 167.061 131.035 168.966V182.759C131.035 183.673 130.672 184.55 130.025 185.197C129.378 185.844 128.501 186.207 127.586 186.207Z" fill="#E4C05C"/>
<path d="M141.379 186.207C140.465 186.207 139.587 185.844 138.94 185.197C138.294 184.55 137.931 183.673 137.931 182.759V168.966C137.931 167.061 139.474 165.517 141.379 165.517C143.284 165.517 144.828 167.061 144.828 168.966V182.759C144.828 183.673 144.465 184.55 143.818 185.197C143.171 185.844 142.294 186.207 141.379 186.207Z" fill="#E4C05C"/>
<path d="M155.172 186.207C154.258 186.207 153.38 185.844 152.733 185.197C152.087 184.55 151.724 183.673 151.724 182.759V168.966C151.724 167.061 153.267 165.517 155.172 165.517C157.076 165.517 158.621 167.061 158.621 168.966V182.759C158.621 183.673 158.258 184.55 157.611 185.197C156.964 185.844 156.087 186.207 155.172 186.207Z" fill="#E4C05C"/>
<path d="M182.759 48.2758H168.966C167.062 48.2758 165.518 46.732 165.518 44.8273C165.518 42.9227 167.061 41.3789 168.966 41.3789H182.759C184.663 41.3789 186.207 42.9227 186.207 44.8273C186.207 46.732 184.663 48.2758 182.759 48.2758Z" fill="#E4C05C"/>
<path d="M182.759 62.0691H168.966C167.062 62.0691 165.518 60.5254 165.518 58.6207C165.518 56.716 167.061 55.1723 168.966 55.1723H182.759C184.663 55.1723 186.207 56.716 186.207 58.6207C186.207 60.5254 184.663 62.0691 182.759 62.0691Z" fill="#E4C05C"/>
<path d="M182.759 75.8621H168.966C167.062 75.8621 165.518 74.3183 165.518 72.4137C165.518 70.5094 167.061 68.9652 168.966 68.9652H182.759C184.663 68.9652 186.207 70.509 186.207 72.4137C186.207 74.3183 184.663 75.8621 182.759 75.8621Z" fill="#E4C05C"/>
<path d="M182.759 89.6551H168.966C167.062 89.6551 165.518 88.1114 165.518 86.2067C165.518 84.302 167.061 82.7582 168.966 82.7582H182.759C184.663 82.7582 186.207 84.302 186.207 86.2067C186.207 88.1114 184.663 89.6551 182.759 89.6551Z" fill="#E4C05C"/>
<path d="M182.759 103.448H168.966C167.062 103.448 165.518 101.905 165.518 100C165.518 98.0953 167.061 96.5516 168.966 96.5516H182.759C184.663 96.5516 186.207 98.0953 186.207 100C186.207 101.905 184.663 103.448 182.759 103.448Z" fill="#E4C05C"/>
<path d="M182.759 117.241H168.966C167.062 117.241 165.518 115.698 165.518 113.793C165.518 111.888 167.061 110.345 168.966 110.345H182.759C184.663 110.345 186.207 111.888 186.207 113.793C186.207 115.698 184.663 117.241 182.759 117.241Z" fill="#E4C05C"/>
<path d="M182.759 131.034H168.966C167.062 131.034 165.518 129.491 165.518 127.586C165.518 125.681 167.061 124.138 168.966 124.138H182.759C184.663 124.138 186.207 125.681 186.207 127.586C186.207 129.491 184.663 131.034 182.759 131.034Z" fill="#E4C05C"/>
<path d="M182.759 144.828H168.966C167.062 144.828 165.518 143.284 165.518 141.379C165.518 139.475 167.061 137.931 168.966 137.931H182.759C184.663 137.931 186.207 139.475 186.207 141.379C186.207 143.284 184.663 144.828 182.759 144.828Z" fill="#E4C05C"/>
<path d="M182.759 158.621H168.966C167.062 158.621 165.518 157.077 165.518 155.172C165.518 153.268 167.061 151.724 168.966 151.724H182.759C184.663 151.724 186.207 153.268 186.207 155.172C186.207 157.077 184.663 158.621 182.759 158.621Z" fill="#E4C05C"/>
<path d="M31.0344 48.2758H17.2414C15.3371 48.2758 13.793 46.732 13.793 44.8273C13.793 42.9227 15.3367 41.3789 17.2414 41.3789H31.0344C32.9387 41.3789 34.4828 42.9227 34.4828 44.8273C34.4828 46.732 32.9391 48.2758 31.0344 48.2758Z" fill="#E4C05C"/>
<path d="M31.0344 62.0691H17.2414C15.3371 62.0691 13.793 60.5254 13.793 58.6207C13.793 56.716 15.3367 55.1723 17.2414 55.1723H31.0344C32.9387 55.1723 34.4828 56.716 34.4828 58.6207C34.4828 60.5254 32.9391 62.0691 31.0344 62.0691Z" fill="#E4C05C"/>
<path d="M31.0344 75.8621H17.2414C15.3371 75.8621 13.793 74.3183 13.793 72.4137C13.793 70.5094 15.3367 68.9652 17.2414 68.9652H31.0344C32.9387 68.9652 34.4828 70.509 34.4828 72.4137C34.4828 74.3183 32.9391 75.8621 31.0344 75.8621Z" fill="#E4C05C"/>
<path d="M31.0344 89.6551H17.2414C15.3371 89.6551 13.793 88.1114 13.793 86.2067C13.793 84.302 15.3367 82.7582 17.2414 82.7582H31.0344C32.9387 82.7582 34.4828 84.302 34.4828 86.2067C34.4828 88.1114 32.9391 89.6551 31.0344 89.6551Z" fill="#E4C05C"/>
<path d="M31.0344 103.448H17.2414C15.3371 103.448 13.793 101.905 13.793 100C13.793 98.0953 15.3367 96.5516 17.2414 96.5516H31.0344C32.9387 96.5516 34.4828 98.0953 34.4828 100C34.4828 101.905 32.9391 103.448 31.0344 103.448Z" fill="#E4C05C"/>
<path d="M31.0344 117.241H17.2414C15.3371 117.241 13.793 115.698 13.793 113.793C13.793 111.888 15.3367 110.345 17.2414 110.345H31.0344C32.9387 110.345 34.4828 111.888 34.4828 113.793C34.4828 115.698 32.9391 117.241 31.0344 117.241Z" fill="#E4C05C"/>
<path d="M31.0344 131.034H17.2414C15.3371 131.034 13.793 129.491 13.793 127.586C13.793 125.681 15.3367 124.138 17.2414 124.138H31.0344C32.9387 124.138 34.4828 125.681 34.4828 127.586C34.4828 129.491 32.9391 131.034 31.0344 131.034Z" fill="#E4C05C"/>
<path d="M31.0344 144.828H17.2414C15.3371 144.828 13.793 143.284 13.793 141.379C13.793 139.475 15.3367 137.931 17.2414 137.931H31.0344C32.9387 137.931 34.4828 139.475 34.4828 141.379C34.4828 143.284 32.9391 144.828 31.0344 144.828Z" fill="#E4C05C"/>
<path d="M31.0344 158.621H17.2414C15.3371 158.621 13.793 157.077 13.793 155.172C13.793 153.268 15.3367 151.724 17.2414 151.724H31.0344C32.9387 151.724 34.4828 153.268 34.4828 155.172C34.4828 157.077 32.9391 158.621 31.0344 158.621Z" fill="#E4C05C"/>
<path d="M168.965 34.4828V165.517C168.965 167.421 167.422 168.966 165.517 168.966H34.4826C32.5783 168.966 31.0342 167.422 31.0342 165.517V34.4828C31.0342 32.5785 32.5779 31.0344 34.4826 31.0344H165.517C167.421 31.0344 168.965 32.5785 168.965 34.4828Z" fill="#BDC3C7"/>
</g>
<defs>
<clipPath id="clip0">
<rect width="200" height="200" fill="white"/>
</clipPath>
</defs>
</svg>
