<svg width="200" height="200" viewBox="0 0 200 200" fill="none" xmlns="http://www.w3.org/2000/svg">
<g clip-path="url(#clip0)">
<path d="M166.101 157.627H155.932C154.06 157.627 152.542 156.109 152.542 154.237V140.678C152.542 138.805 154.06 137.288 155.932 137.288C157.804 137.288 159.322 138.805 159.322 140.678V150.847H166.101C167.974 150.847 169.491 152.365 169.491 154.237C169.491 156.109 167.974 157.627 166.101 157.627Z" fill="#B19046"/>
<path d="M200 52.5422V133.898C199.989 137.638 196.96 140.667 193.22 140.678H16.9492V45.7629H193.22C196.96 45.7738 199.989 48.8027 200 52.5422Z" fill="#4482C3"/>
<path d="M30.5088 140.678H44.0682V150.848C44.0682 152.72 42.5506 154.237 40.6783 154.237H33.8986C32.0264 154.237 30.5088 152.72 30.5088 150.848V140.678Z" fill="#E4C05C"/>
<path d="M57.627 140.678H77.966V150.848C77.966 152.72 76.4484 154.237 74.5762 154.237H61.0168C59.1445 154.237 57.627 152.72 57.627 150.848V140.678Z" fill="#E4C05C"/>
<path d="M91.5254 140.678H142.373V150.848C142.373 152.72 140.855 154.237 138.983 154.237H94.9152C93.043 154.237 91.5254 152.72 91.5254 150.848V140.678Z" fill="#E4C05C"/>
<path d="M186.441 62.7117H172.882C171.01 62.7117 169.492 61.1941 169.492 59.3219C169.492 57.4496 171.01 55.932 172.882 55.932H186.441C188.314 55.932 189.831 57.4496 189.831 59.3219C189.831 61.1941 188.314 62.7117 186.441 62.7117Z" fill="#285680"/>
<path d="M186.441 130.509H172.882C171.01 130.509 169.492 128.991 169.492 127.119C169.492 125.246 171.01 123.729 172.882 123.729H186.441C188.314 123.729 189.831 125.246 189.831 127.119C189.831 128.991 188.314 130.509 186.441 130.509Z" fill="#285680"/>
<path d="M44.0684 62.7117H30.509C28.6367 62.7117 27.1191 61.1941 27.1191 59.3219C27.1191 57.4496 28.6367 55.932 30.509 55.932H44.0684C45.9406 55.932 47.4582 57.4496 47.4582 59.3219C47.4582 61.1941 45.9402 62.7117 44.0684 62.7117Z" fill="#285680"/>
<path d="M44.0684 130.509H30.509C28.6367 130.509 27.1191 128.991 27.1191 127.119C27.1191 125.246 28.6367 123.729 30.509 123.729H44.0684C45.9406 123.729 47.4582 125.246 47.4582 127.119C47.4582 128.991 45.9402 130.509 44.0684 130.509Z" fill="#285680"/>
<path d="M115.254 62.7117H101.695C99.8223 62.7117 98.3047 61.1941 98.3047 59.3219C98.3047 57.4496 99.8223 55.932 101.695 55.932H115.254C117.126 55.932 118.644 57.4496 118.644 59.3219C118.644 61.1941 117.126 62.7117 115.254 62.7117Z" fill="#285680"/>
<path d="M115.254 130.509H101.695C99.8223 130.509 98.3047 128.991 98.3047 127.119C98.3047 125.246 99.8223 123.729 101.695 123.729H115.254C117.126 123.729 118.644 125.246 118.644 127.119C118.644 128.991 117.126 130.509 115.254 130.509Z" fill="#285680"/>
<path d="M47.458 96.6102H16.9494C15.0771 96.6102 13.5596 95.0926 13.5596 93.2203C13.5596 91.3481 15.0771 89.8305 16.9494 89.8305H47.458C49.3303 89.8305 50.8478 91.3481 50.8478 93.2203C50.8475 95.0926 49.3299 96.6102 47.458 96.6102Z" fill="#285680"/>
<path d="M200 89.8305V96.6102H169.491C167.619 96.6102 166.102 95.0926 166.102 93.2203C166.102 91.3481 167.619 89.8305 169.491 89.8305H200Z" fill="#285680"/>
<path d="M16.9492 42.373H3.38984C1.51758 42.373 0 43.8906 0 45.7629C0 47.6352 1.51758 49.1527 3.38984 49.1527H13.5594V154.238C13.5594 156.11 15.077 157.627 16.9492 157.627C18.8215 157.627 20.3391 156.11 20.3391 154.238V45.7629C20.3391 43.8906 18.8215 42.373 16.9492 42.373Z" fill="#5E5F62"/>
<path d="M98.5082 93.2203V93.6269C98.3839 102.458 93.9542 110.671 86.6437 115.627H86.6097C84.6691 116.982 82.5464 118.054 80.3046 118.813H80.2706C77.4187 119.824 74.4152 120.34 71.3894 120.339C65.7046 120.347 60.1628 118.555 55.5589 115.22C53.6132 113.828 51.8581 112.187 50.3386 110.339C46.4011 105.504 44.2574 99.4555 44.2706 93.2199C44.255 88.309 45.5921 83.4887 48.1351 79.2879C52.6574 71.7273 60.571 66.8352 69.3554 66.1691C70.0335 66.1355 70.7113 66.1012 71.3894 66.1012C73.1066 66.1031 74.8199 66.2621 76.5081 66.5758C89.3046 68.9941 98.555 80.1973 98.5082 93.2203Z" fill="#A5A5A4"/>
<path d="M73.6613 88.9832C73.0352 89.5367 72.2258 89.8387 71.3902 89.8305C69.9758 89.841 68.7035 88.9727 68.1981 87.652C67.6922 86.3312 68.0594 84.8352 69.1192 83.8984C69.2547 83.7629 73.7633 79.1867 69.6953 67.5594C69.4801 67.1273 69.3641 66.6523 69.3563 66.1695C70.0344 66.1359 70.7121 66.1016 71.3902 66.1016C73.1074 66.1035 74.8207 66.2625 76.509 66.5762C81.3563 81.8644 74.0004 88.6781 73.6613 88.9832Z" fill="#5E5F62"/>
<path d="M66.2713 94.068C65.8729 94.2281 65.4467 94.3086 65.017 94.3051C63.6561 94.3055 62.4275 93.4906 61.8982 92.2371C61.7287 91.8641 58.8135 86.1016 46.4068 86.0336C46.0244 86.0379 45.6447 85.9692 45.2881 85.8301C45.9346 83.5297 46.8928 81.3285 48.1354 79.2879C57.2541 80.3047 61.1861 82.3047 63.7623 84.3387C65.0674 85.332 66.2107 86.5211 67.1521 87.8641C67.5553 88.4242 67.8963 89.0266 68.1689 89.6606C68.8498 91.402 68.0037 93.366 66.2713 94.068Z" fill="#5E5F62"/>
<path d="M70.4074 98.3051C70.4129 98.509 70.4016 98.7133 70.3734 98.9152C70.118 100.504 68.793 101.702 67.1871 101.796C66.7805 101.83 60.3734 102.576 56.1023 114.237C55.9762 114.592 55.793 114.924 55.5602 115.22C53.6145 113.828 51.8594 112.187 50.3398 110.339C55.018 98.9832 62.0008 96.034 65.2211 95.2883C65.7758 95.1426 66.3434 95.0516 66.916 95.0172C67.816 94.9863 68.6914 95.3164 69.3469 95.934C70.0023 96.5512 70.3844 97.4047 70.4074 98.3051Z" fill="#5E5F62"/>
<path d="M86.6105 115.627C84.6699 116.982 82.5472 118.054 80.3054 118.813H80.2714C70.475 109.898 70.8476 101.796 71.3222 99.0168C71.371 98.6824 71.4503 98.3535 71.5593 98.0336C71.9308 96.8777 72.8921 96.0094 74.0792 95.7566C75.2664 95.5039 76.4984 95.9058 77.3082 96.8101C78.1179 97.7144 78.382 98.9828 78 100.135C77.932 100.339 76.305 106.677 85.932 114.779C86.2238 115.004 86.4562 115.294 86.6105 115.627Z" fill="#5E5F62"/>
<path d="M98.5092 93.2203V93.6269C94.4299 95.9113 89.8603 97.1785 85.1873 97.3219C81.9092 97.4586 78.6744 96.5312 75.967 94.6777C75.0143 93.9293 74.5353 92.7285 74.7119 91.5301C74.8881 90.3316 75.6928 89.3195 76.8205 88.8773C77.9482 88.4351 79.2264 88.6308 80.1705 89.3898C80.34 89.4914 85.7299 93.1863 96.6111 86.9152C96.9471 86.7262 97.3146 86.5996 97.6959 86.5422C98.2432 88.7258 98.5162 90.9691 98.5092 93.2203Z" fill="#5E5F62"/>
<path d="M173.084 93.2203V93.6269C172.96 102.458 168.53 110.671 161.22 115.627H161.186C159.245 116.982 157.123 118.054 154.881 118.813H154.847C151.995 119.824 148.991 120.34 145.966 120.339C140.281 120.347 134.739 118.555 130.135 115.22C128.189 113.828 126.434 112.187 124.915 110.339C120.977 105.504 118.834 99.4555 118.847 93.2199C118.831 88.309 120.168 83.4887 122.711 79.2879C127.234 71.7273 135.147 66.8352 143.932 66.1691C144.61 66.1355 145.287 66.1012 145.966 66.1012C147.683 66.1031 149.396 66.2621 151.084 66.5758C163.881 68.9941 173.131 80.1973 173.084 93.2203Z" fill="#A5A5A4"/>
<path d="M148.237 88.9832C147.611 89.5367 146.802 89.8387 145.966 89.8305C144.999 89.8305 144.077 89.4246 143.424 88.7117C143.153 88.3867 142.936 88.0203 142.78 87.6269C142.298 86.3137 142.66 84.8391 143.695 83.898C143.831 83.7625 148.339 79.1863 144.271 67.559C144.056 67.127 143.94 66.652 143.932 66.1691C144.61 66.1355 145.288 66.1012 145.966 66.1012C147.683 66.1031 149.397 66.2621 151.085 66.5758C155.932 81.8645 148.576 88.6781 148.237 88.9832Z" fill="#5E5F62"/>
<path d="M140.847 94.068C140.449 94.2281 140.023 94.3086 139.593 94.3051C138.232 94.3055 137.004 93.4906 136.474 92.2371C136.305 91.8641 133.39 86.1016 120.983 86.0336C120.601 86.0379 120.221 85.9692 119.864 85.8301C120.511 83.5297 121.469 81.3285 122.712 79.2879C131.831 80.3047 135.763 82.3047 138.339 84.3387C140.22 85.7266 141.733 87.5539 142.746 89.6606C143.426 91.402 142.58 93.366 140.847 94.068Z" fill="#5E5F62"/>
<path d="M144.984 98.3051C144.989 98.509 144.978 98.7133 144.95 98.9152C144.694 100.504 143.369 101.702 141.763 101.796C141.357 101.83 134.95 102.576 130.679 114.237C130.552 114.592 130.369 114.924 130.136 115.22C128.191 113.828 126.436 112.187 124.916 110.339C129.594 98.9832 136.577 96.034 139.797 95.2883C140.352 95.1426 140.92 95.0516 141.492 95.0172C142.394 94.9809 143.272 95.309 143.929 95.9277C144.586 96.5461 144.966 97.4031 144.984 98.3051Z" fill="#5E5F62"/>
<path d="M161.187 115.627C159.246 116.982 157.123 118.054 154.882 118.813H154.848C145.051 109.898 145.424 101.796 145.898 99.0168C145.947 98.6824 146.027 98.3535 146.135 98.0336C146.507 96.8777 147.468 96.0094 148.655 95.7566C149.843 95.5039 151.075 95.9058 151.884 96.8101C152.694 97.7144 152.958 98.9828 152.576 100.135C152.508 100.339 150.881 106.677 160.508 114.779C160.8 115.004 161.032 115.294 161.187 115.627Z" fill="#5E5F62"/>
<path d="M173.084 93.2203V93.6269C169.005 95.9113 164.436 97.1785 159.762 97.3219C156.484 97.4586 153.25 96.5312 150.542 94.6777C149.094 93.5133 148.859 91.3984 150.015 89.9441C151.171 88.4898 153.284 88.2422 154.745 89.3898C154.915 89.4914 160.305 93.1863 171.186 86.9152C171.522 86.7262 171.889 86.5996 172.271 86.5422C172.818 88.7258 173.091 90.9691 173.084 93.2203Z" fill="#5E5F62"/>
<path d="M71.1861 103.39C76.8026 103.39 81.3557 98.8368 81.3557 93.2203C81.3557 87.6038 76.8026 83.0508 71.1861 83.0508C65.5697 83.0508 61.0166 87.6038 61.0166 93.2203C61.0166 98.8368 65.5697 103.39 71.1861 103.39Z" fill="#D1D4D1"/>
<path d="M145.762 103.39C151.379 103.39 155.932 98.8368 155.932 93.2203C155.932 87.6038 151.379 83.0508 145.762 83.0508C140.146 83.0508 135.593 87.6038 135.593 93.2203C135.593 98.8368 140.146 103.39 145.762 103.39Z" fill="#D1D4D1"/>
</g>
<defs>
<clipPath id="clip0">
<rect width="200" height="200" fill="white"/>
</clipPath>
</defs>
</svg>
