<svg width="200" height="200" viewBox="0 0 200 200" fill="none" xmlns="http://www.w3.org/2000/svg">
<path d="M37.9309 0H162.069C167.782 0 172.414 4.63164 172.414 10.3449V189.655C172.414 195.368 167.782 200 162.069 200H37.9309C32.2176 200 27.5859 195.368 27.5859 189.655V10.3449C27.5863 4.63164 32.2176 0 37.9309 0Z" fill="#7F8C8D"/>
<path d="M41.3789 17.2413C40.4617 17.2503 39.5793 16.8897 38.9308 16.2413C38.2824 15.5929 37.9218 14.7105 37.9308 13.7933C37.9429 12.88 38.3 12.0054 38.9308 11.3448C39.7562 10.5562 40.909 10.2101 42.0324 10.414C42.2613 10.4456 42.4832 10.5151 42.689 10.6194C42.9086 10.6952 43.1168 10.7999 43.3086 10.9308C43.4898 11.0577 43.6632 11.196 43.8273 11.3448C45.1609 12.7046 45.1609 14.8815 43.8273 16.2409C43.6632 16.389 43.4902 16.5269 43.3086 16.6534C43.1168 16.7843 42.9086 16.889 42.689 16.9647C42.4828 17.0687 42.2609 17.1386 42.0324 17.1718C41.8168 17.2116 41.598 17.2351 41.3789 17.2413Z" fill="#5E5F62"/>
<path d="M158.62 17.2414C157.703 17.2504 156.82 16.8898 156.172 16.2414C155.524 15.5929 155.163 14.7105 155.172 13.7933C155.178 12.8789 155.536 12.0019 156.172 11.3449L156.687 10.9308C156.88 10.8 157.09 10.6949 157.31 10.6195C157.515 10.5152 157.736 10.4461 157.964 10.414C158.394 10.3097 158.844 10.3097 159.274 10.414C159.503 10.4457 159.724 10.5152 159.93 10.6195C160.15 10.6953 160.358 10.8 160.55 10.9308C160.722 11.0687 160.897 11.207 161.069 11.3449C161.206 11.5168 161.345 11.6883 161.483 11.8617C161.612 12.0539 161.716 12.2625 161.792 12.4812C161.892 12.6765 161.961 12.8859 161.998 13.1023C162.038 13.3304 162.061 13.5613 162.069 13.7926C162.063 14.0125 162.04 14.2316 161.998 14.4476C161.967 14.6761 161.897 14.8976 161.792 15.1027C161.724 15.3144 161.619 15.5125 161.483 15.6886C161.345 15.8957 161.206 16.0676 161.069 16.241C160.897 16.3789 160.722 16.5172 160.55 16.6535C160.358 16.7843 160.15 16.889 159.93 16.9648C159.724 17.0687 159.502 17.1386 159.274 17.1718C159.058 17.2121 158.839 17.2351 158.62 17.2414Z" fill="#5E5F62"/>
<path d="M158.62 189.655C158.4 189.649 158.18 189.626 157.963 189.586C157.736 189.553 157.515 189.483 157.31 189.379C157.089 189.303 156.88 189.198 156.687 189.068C156.515 188.931 156.344 188.793 156.172 188.655C155.536 187.998 155.177 187.121 155.172 186.207C155.177 185.756 155.271 185.31 155.448 184.895C155.614 184.473 155.86 184.088 156.172 183.759C157.555 182.482 159.686 182.482 161.068 183.759C161.206 183.931 161.345 184.102 161.482 184.309C161.618 184.486 161.723 184.684 161.792 184.895C161.969 185.31 162.063 185.756 162.068 186.207C162.063 186.438 162.039 186.668 161.998 186.896C161.961 187.112 161.892 187.322 161.792 187.517C161.716 187.736 161.612 187.945 161.482 188.138C161.345 188.31 161.206 188.482 161.068 188.655C160.896 188.793 160.721 188.931 160.55 189.068C160.358 189.198 160.15 189.303 159.93 189.379C159.724 189.483 159.502 189.553 159.273 189.586C159.057 189.626 158.839 189.649 158.62 189.655Z" fill="#5E5F62"/>
<path d="M41.3789 189.655C40.9285 189.65 40.4832 189.556 40.0691 189.379C39.643 189.22 39.2555 188.973 38.9309 188.655C37.5973 187.295 37.5973 185.118 38.9309 183.759C39.7563 182.97 40.909 182.624 42.0324 182.828C42.2613 182.859 42.4832 182.929 42.6891 183.033C42.9086 183.109 43.1168 183.214 43.3086 183.344C43.4805 183.482 43.6555 183.621 43.8273 183.759C45.1609 185.118 45.1609 187.295 43.8273 188.655C43.1691 189.289 42.293 189.647 41.3789 189.655Z" fill="#5E5F62"/>
<path d="M148.276 100C148.273 102.745 149.362 105.378 151.302 107.319C153.243 109.259 155.876 110.348 158.621 110.345V162.069L134.483 186.207H65.5178L41.3799 162.069V110.345C47.0932 110.345 51.7248 105.713 51.7248 100C51.7248 94.2867 47.0932 89.6551 41.3799 89.6551V37.9309L65.5178 13.793H134.483L158.621 37.9309V89.6551C155.876 89.6516 153.243 90.7402 151.302 92.6809C149.362 94.6219 148.273 97.2551 148.276 100Z" fill="#BDC3C7"/>
<path d="M68.9658 165.517C76.5835 165.517 82.7588 159.342 82.7588 151.724C82.7588 144.107 76.5835 137.931 68.9658 137.931C61.3482 137.931 55.1729 144.107 55.1729 151.724C55.1729 159.342 61.3482 165.517 68.9658 165.517Z" fill="#285680"/>
<path d="M68.966 155.172C68.0531 155.159 67.1789 154.802 66.5176 154.172C66.3699 154.008 66.2316 153.836 66.1035 153.655C65.9723 153.463 65.868 153.254 65.7938 153.034C65.6941 152.838 65.6238 152.629 65.5848 152.413C65.5473 152.185 65.525 151.955 65.5176 151.724C65.5176 149.82 67.0613 148.276 68.966 148.276C70.8707 148.276 72.4145 149.82 72.4145 151.724C72.4094 151.955 72.3856 152.186 72.3438 152.413C72.3074 152.629 72.2383 152.839 72.1383 153.034C72.0625 153.253 71.9582 153.462 71.8285 153.655C71.7004 153.836 71.5621 154.008 71.4145 154.173C70.7527 154.801 69.8785 155.158 68.966 155.172Z" fill="#4482C3"/>
<path d="M72.4143 27.5863H127.587C129.491 27.5863 131.035 29.1301 131.035 31.0347V41.3797C131.035 43.284 129.491 44.8281 127.587 44.8281H72.4143C70.51 44.8281 68.9658 43.2843 68.9658 41.3797V31.0343C68.9662 29.1301 70.51 27.5863 72.4143 27.5863Z" fill="#4482C3"/>
<path d="M131.034 62.0692V137.931C131.029 139.833 129.488 141.374 127.586 141.38H102.103C100.738 141.383 99.4043 140.975 98.2754 140.207L72.034 122.725C70.1114 121.456 68.9575 119.304 68.9649 117V62.0692C68.9703 60.1672 70.511 58.6266 72.4133 58.6207H127.586C129.488 58.6262 131.029 60.1668 131.034 62.0692Z" fill="#E6E7E8"/>
<path d="M86.2072 82.7586C85.2928 82.759 84.4154 82.3957 83.7686 81.7488C83.1217 81.1019 82.7588 80.225 82.7588 79.3101V72.4136C82.7588 70.5094 84.3025 68.9652 86.2072 68.9652C88.1119 68.9652 89.6557 70.509 89.6557 72.4136V79.3101C89.6561 80.2246 89.2928 81.1019 88.6459 81.7488C87.999 82.3957 87.1217 82.759 86.2072 82.7586Z" fill="#4482C3"/>
<path d="M100 82.7586C99.0857 82.759 98.2084 82.3957 97.5615 81.7488C96.9147 81.1019 96.5518 80.225 96.5518 79.3101V72.4136C96.5518 70.5094 98.0955 68.9652 100 68.9652C101.905 68.9652 103.449 70.509 103.449 72.4136V79.3101C103.449 80.2246 103.086 81.1019 102.439 81.7488C101.792 82.3957 100.915 82.759 100 82.7586Z" fill="#4482C3"/>
<path d="M113.793 82.7586C112.879 82.759 112.001 82.3957 111.354 81.7488C110.708 81.1019 110.345 80.225 110.345 79.3101V72.4136C110.345 70.5094 111.888 68.9652 113.793 68.9652C115.698 68.9652 117.242 70.509 117.242 72.4136V79.3101C117.242 80.2246 116.879 81.1019 116.232 81.7488C115.585 82.3957 114.708 82.759 113.793 82.7586Z" fill="#4482C3"/>
<path d="M131.035 124.138V131.034H106.897C104.992 131.034 103.448 129.491 103.448 127.586C103.448 125.681 104.992 124.137 106.897 124.137H131.035V124.138Z" fill="#4482C3"/>
<path d="M89.6553 41.3792V44.8277H82.7588V41.3792C82.7588 39.4749 84.3025 37.9308 86.2072 37.9308C88.1119 37.9308 89.6553 39.4749 89.6553 41.3792Z" fill="#285680"/>
<path d="M103.449 41.3792V44.8277H96.5527V41.3792C96.5527 39.4749 98.0965 37.9308 100.001 37.9308C101.906 37.9308 103.449 39.4749 103.449 41.3792Z" fill="#285680"/>
<path d="M117.241 41.3792V44.8277H110.345V41.3792C110.345 39.4749 111.888 37.9308 113.793 37.9308C115.698 37.9308 117.241 39.4749 117.241 41.3792Z" fill="#285680"/>
</svg>
