<svg width="200" height="200" viewBox="0 0 200 200" fill="none" xmlns="http://www.w3.org/2000/svg">
<path d="M28.125 109.375H9.375V121.875H28.125V109.375Z" fill="#E4C05C" stroke="#E4C05C" stroke-linecap="round" stroke-linejoin="round"/>
<path d="M28.125 134.375H9.375V146.875H28.125V134.375Z" fill="#E4C05C" stroke="#E4C05C" stroke-linecap="round" stroke-linejoin="round"/>
<path d="M28.125 159.375H9.375V171.875H28.125V159.375Z" fill="#E4C05C" stroke="#E4C05C" stroke-linecap="round" stroke-linejoin="round"/>
<path d="M196.875 28.125H34.375V171.875H196.875V28.125Z" fill="#527F72" stroke="#527F72" stroke-linecap="round" stroke-linejoin="round"/>
<path d="M115.625 28.125H34.375V109.375H115.625V28.125Z" fill="#111931" stroke="#111931" stroke-linecap="round" stroke-linejoin="round"/>
<path d="M75 96.875C90.533 96.875 103.125 84.283 103.125 68.75C103.125 53.217 90.533 40.625 75 40.625C59.467 40.625 46.875 53.217 46.875 68.75C46.875 84.283 59.467 96.875 75 96.875Z" fill="#A5A5A4" stroke="#111931" stroke-linecap="round" stroke-linejoin="round"/>
<path d="M28.125 40.625H9.375V59.375H28.125V40.625Z" fill="#E4C05C" stroke="#E4C05C" stroke-linecap="round" stroke-linejoin="round"/>
<path d="M3.125 15.6257V28.1257H21.875V190.626H34.375V28.1257V15.6257H21.875H3.125Z" fill="#111931" stroke="#111931" stroke-linecap="round" stroke-linejoin="round"/>
<path d="M184.375 43.75C186.101 43.75 187.5 42.3509 187.5 40.625C187.5 38.8991 186.101 37.5 184.375 37.5C182.649 37.5 181.25 38.8991 181.25 40.625C181.25 42.3509 182.649 43.75 184.375 43.75Z" fill="#272D36"/>
<path d="M184.375 162.5C186.101 162.5 187.5 161.101 187.5 159.375C187.5 157.649 186.101 156.25 184.375 156.25C182.649 156.25 181.25 157.649 181.25 159.375C181.25 161.101 182.649 162.5 184.375 162.5Z" fill="#272D36"/>
<path d="M187.5 75H181.25V131.25H187.5V75Z" fill="#E4C05C"/>
<path d="M175 75H168.75V131.25H175V75Z" fill="#E4C05C"/>
<path d="M87.5 125H56.25V156.25H87.5V125Z" fill="#E4C05C"/>
<path d="M68.75 131.25H50V137.5H68.75V131.25Z" fill="#E4C05C"/>
<path d="M68.75 143.75H50V150H68.75V143.75Z" fill="#E4C05C"/>
<path d="M81.25 137.5V118.75H75V137.5H81.25Z" fill="#E4C05C"/>
<path d="M68.75 137.5V118.75H62.5V137.5H68.75Z" fill="#E4C05C"/>
<path d="M77.3222 64.4409C76.6751 65.0079 75.8386 65.3172 74.9752 65.3088C73.5134 65.3197 72.1986 64.4301 71.6763 63.0771C71.1535 61.7241 71.533 60.1914 72.6281 59.2318C72.7682 59.093 77.4275 54.405 73.2236 42.4934C73.0012 42.0508 72.8813 41.5642 72.8732 41.0696C73.574 41.0352 74.2744 41 74.9752 41C76.7498 41.002 78.5203 41.1649 80.265 41.4862C85.2743 57.1481 77.6726 64.1283 77.3222 64.4409Z" fill="#5E5F62"/>
<path d="M69.6847 69.6499C69.2729 69.814 68.8325 69.8965 68.3884 69.8929C66.982 69.8933 65.7124 69.0585 65.1654 67.7743C64.9902 67.3922 61.9775 61.4888 49.1562 61.4192C48.7609 61.4236 48.3686 61.3532 48 61.2107C48.6681 58.8541 49.6583 56.5991 50.9424 54.5086C60.366 55.5503 64.4295 57.5992 67.0918 59.6829C68.4405 60.7005 69.6221 61.9186 70.595 63.2944C71.0116 63.8683 71.364 64.4853 71.6458 65.1348C72.3494 66.9188 71.475 68.9308 69.6847 69.6499Z" fill="#5E5F62"/>
<path d="M73.9582 73.9906C73.9638 74.1995 73.9521 74.4088 73.923 74.6157C73.659 76.2431 72.2897 77.4701 70.6302 77.5673C70.21 77.6021 63.5887 78.3661 59.1749 90.312C59.0445 90.6757 58.8551 91.0159 58.6146 91.3192C56.6038 89.893 54.7901 88.2119 53.2197 86.3187C58.0542 74.6853 65.2705 71.664 68.5985 70.9001C69.1717 70.7508 69.7582 70.6575 70.35 70.6223C71.2801 70.5907 72.1848 70.9289 72.8622 71.5615C73.5395 72.1938 73.9343 73.0682 73.9582 73.9906Z" fill="#5E5F62"/>
<path d="M90.7042 91.7358C88.6987 93.1236 86.5051 94.2225 84.1883 95H84.1532C74.0292 85.8669 74.4143 77.5673 74.9048 74.7197C74.9553 74.3771 75.0372 74.0402 75.1499 73.7124C75.5338 72.5283 76.5272 71.6387 77.754 71.3798C78.9808 71.1209 80.254 71.5327 81.0909 72.4591C81.9277 73.3855 82.2006 74.6849 81.8058 75.8654C81.7355 76.0739 80.0542 82.5674 90.003 90.8674C90.3045 91.0971 90.5447 91.3949 90.7042 91.7358Z" fill="#5E5F62"/>
<path d="M103 68.7815V69.1981C98.7846 71.5383 94.0623 72.8365 89.233 72.9833C85.8453 73.1234 82.5024 72.1734 79.7045 70.2746C78.7199 69.5078 78.225 68.2777 78.4075 67.05C78.5895 65.8223 79.4211 64.7854 80.5865 64.3324C81.752 63.8794 83.0728 64.0799 84.0485 64.8574C84.2237 64.9615 89.7937 68.7467 101.039 62.3224C101.386 62.1287 101.766 61.999 102.16 61.9402C102.725 64.1771 103.008 66.4753 103 68.7815Z" fill="#5E5F62"/>
<path d="M75.1695 79.3391C80.786 79.3391 85.3391 74.786 85.3391 69.1695C85.3391 63.5531 80.786 59 75.1695 59C69.5531 59 65 63.5531 65 69.1695C65 74.786 69.5531 79.3391 75.1695 79.3391Z" fill="#D1D4D1"/>
<path d="M81.25 162.5V143.75H75V162.5H81.25Z" fill="#E4C05C"/>
<path d="M68.75 162.5V143.75H62.5V162.5H68.75Z" fill="#E4C05C"/>
<path d="M93.75 131.25H75V137.5H93.75V131.25Z" fill="#E4C05C"/>
<path d="M93.75 143.75H75V150H93.75V143.75Z" fill="#E4C05C"/>
<path d="M128.125 87.5C129.851 87.5 131.25 86.1009 131.25 84.375C131.25 82.6491 129.851 81.25 128.125 81.25C126.399 81.25 125 82.6491 125 84.375C125 86.1009 126.399 87.5 128.125 87.5Z" fill="#E4C05C"/>
<path d="M140.625 87.5C142.351 87.5 143.75 86.1009 143.75 84.375C143.75 82.6491 142.351 81.25 140.625 81.25C138.899 81.25 137.5 82.6491 137.5 84.375C137.5 86.1009 138.899 87.5 140.625 87.5Z" fill="#E4C05C"/>
<path d="M153.125 87.5C154.851 87.5 156.25 86.1009 156.25 84.375C156.25 82.6491 154.851 81.25 153.125 81.25C151.399 81.25 150 82.6491 150 84.375C150 86.1009 151.399 87.5 153.125 87.5Z" fill="#E4C05C"/>
<path d="M131.25 93.75H125V125H131.25V93.75Z" fill="#E4C05C"/>
<path d="M143.75 93.75H137.5V125H143.75V93.75Z" fill="#E4C05C"/>
<path d="M156.25 93.75H150V125H156.25V93.75Z" fill="#E4C05C"/>
<path d="M125 137.5H106.25V150H125V137.5Z" fill="#E4C05C"/>
<path d="M150 137.5H131.25V150H150V137.5Z" fill="#E4C05C"/>
<path d="M175 137.5H156.25V150H175V137.5Z" fill="#E4C05C"/>
<path d="M181.25 56.25V50H125V56.25H181.25Z" fill="#E4C05C"/>
<path d="M181.25 68.75V62.5H125V68.75H181.25Z" fill="#E4C05C"/>
</svg>
