<svg width="200" height="200" viewBox="0 0 200 200" fill="none" xmlns="http://www.w3.org/2000/svg">
<path d="M165.517 0H34.4826C28.7693 0 24.1377 4.63164 24.1377 10.3449V189.655C24.1377 195.368 28.7693 200 34.4826 200H165.517C171.23 200 175.862 195.368 175.862 189.655V10.3449C175.862 4.63164 171.23 0 165.517 0Z" fill="#556080"/>
<path d="M34.4826 0H124.138C129.851 0 134.483 4.63164 134.483 10.3449V189.655C134.483 195.368 129.851 200 124.138 200H34.4826C28.7693 200 24.1377 195.368 24.1377 189.655V10.3449C24.1377 4.63164 28.7693 0 34.4826 0Z" fill="#90BAE1"/>
<path d="M120.69 17.2414V41.3793H37.9307V17.2414C37.9361 15.3395 39.4768 13.7988 41.3791 13.793H117.241C119.143 13.7984 120.684 15.3391 120.69 17.2414Z" fill="#8697CB"/>
<path d="M120.689 41.3793H37.9307V68.9656H120.689V41.3793Z" fill="#556080"/>
<path d="M120.689 68.9656H37.9307V96.552H120.689V68.9656Z" fill="#8697CB"/>
<path d="M120.69 96.5516V182.759C120.684 184.661 119.144 186.201 117.241 186.207H41.3791C39.4771 186.202 37.9365 184.661 37.9307 182.759V96.5516H120.69Z" fill="#556080"/>
<path d="M62.0693 68.9656V79.3106C62.0693 81.2149 63.6131 82.759 65.5178 82.759H93.1041C95.0084 82.759 96.5525 81.2153 96.5525 79.3106V68.9656H62.0693Z" fill="#B0D3F0"/>
<path d="M79.3105 137.931C86.9282 137.931 93.1035 131.756 93.1035 124.138C93.1035 116.52 86.9282 110.345 79.3105 110.345C71.6929 110.345 65.5176 116.52 65.5176 124.138C65.5176 131.756 71.6929 137.931 79.3105 137.931Z" fill="#D75E72"/>
<path d="M79.3101 158.621C77.9159 158.615 76.6609 157.774 76.1261 156.486C75.5913 155.198 75.8816 153.716 76.8616 152.724C77.687 151.935 78.8398 151.589 79.9632 151.793C80.1921 151.825 80.414 151.894 80.6198 151.998C80.8316 152.068 81.03 152.173 81.2058 152.31C81.3995 152.419 81.5745 152.559 81.7245 152.724C82.3855 153.367 82.7585 154.25 82.7585 155.172C82.7585 156.094 82.3855 156.977 81.7245 157.62C81.5656 157.774 81.3917 157.912 81.2058 158.032C81.03 158.169 80.8316 158.275 80.6198 158.344C80.4136 158.448 80.1917 158.518 79.9632 158.551C79.7476 158.591 79.5296 158.614 79.3101 158.621Z" fill="#F0785A"/>
</svg>
