<svg width="200" height="200" viewBox="0 0 200 200" fill="none" xmlns="http://www.w3.org/2000/svg">
<path d="M188.819 10.4477C187.284 4.30742 181.767 0 175.438 0H24.5625C18.2332 0 12.716 4.30742 11.1813 10.4477L0 55.1723V189.655C0 195.368 4.63164 200 10.3449 200H189.655C195.368 200 200 195.368 200 189.655V55.1723L188.819 10.4477Z" fill="#BDC3C7"/>
<path d="M0 55.1723H200V189.655C200 195.368 195.368 200 189.655 200H10.3449C4.63164 200 0 195.368 0 189.655V55.1723Z" fill="#95A5A5"/>
<path d="M106.896 127.586C106.844 146.034 95.5428 162.583 78.3788 169.345C73.185 171.391 67.6503 172.432 62.0686 172.414C52.2171 172.426 42.6382 169.176 34.8272 163.173C32.5608 161.452 30.4702 159.512 28.5858 157.38C18.178 145.702 14.6218 129.439 19.2065 114.483C20.0323 111.737 21.1296 109.08 22.4823 106.552C29.8565 92.6418 43.9999 83.632 59.7237 82.8281C60.5167 82.7937 61.2753 82.759 62.0686 82.759C64.1917 82.7511 66.3124 82.9011 68.4136 83.2074C86.8807 85.8492 101.782 99.6515 105.827 117.862C106.47 120.692 106.817 123.582 106.862 126.483C106.896 126.862 106.896 127.207 106.896 127.586Z" fill="#5E5F62"/>
<path d="M62.0686 158.621C79.2084 158.621 93.1029 144.726 93.1029 127.586C93.1029 110.447 79.2084 96.552 62.0686 96.552C44.9287 96.552 31.0342 110.447 31.0342 127.586C31.0342 144.726 44.9287 158.621 62.0686 158.621Z" fill="#A5A5A4"/>
<path d="M65.4495 118.414C64.8077 119.627 63.5459 120.384 62.1737 120.379C61.5745 120.378 60.9842 120.236 60.4495 119.966C59.5768 119.512 58.9217 118.729 58.6303 117.789C58.3389 116.85 58.435 115.834 58.8979 114.966C59.9323 113 68.4495 95.8621 59.7256 82.8277C60.5186 82.7934 61.2772 82.7586 62.0705 82.7586C64.1936 82.7508 66.3143 82.9008 68.4155 83.207C75.1389 98.3449 67.3112 114.896 65.4495 118.414Z" fill="#E6E7E8"/>
<path d="M54.1727 126.517C52.6769 127.915 50.332 127.838 48.9312 126.345C46.4484 123.724 33.8969 111.103 19.207 114.483C20.0328 111.737 21.1301 109.08 22.4828 106.552C38.8277 105.552 51.6898 118.38 54.3449 121.276C55.018 121.994 55.3777 122.95 55.3453 123.932C55.3133 124.916 54.8914 125.845 54.1727 126.517Z" fill="#E6E7E8"/>
<path d="M58.0697 137.759C57.6506 138.609 56.9412 139.282 56.0697 139.655C54.0354 140.448 36.9318 147.793 34.8283 163.172C32.5619 161.452 30.4713 159.511 28.5869 157.379C33.6213 141.138 51.0697 133.655 53.3111 132.759C55.2154 132 57.3744 132.926 58.1389 134.828C58.5314 135.77 58.5064 136.836 58.0697 137.759Z" fill="#E6E7E8"/>
<path d="M86.0348 165.448C83.6148 166.992 81.0512 168.297 78.3797 169.345C65.4832 159.586 63.8281 141.724 63.6211 137.793L67.3453 137.586H71.0352C71.2418 141 72.8281 158.552 86.0348 165.448Z" fill="#E6E7E8"/>
<path d="M106.863 126.483C100.957 130.205 94.0835 132.1 87.1046 131.931C81.9417 131.904 76.8089 131.138 71.8632 129.655C69.9112 129.029 68.8319 126.943 69.4491 124.988C70.0659 123.033 72.1468 121.945 74.1046 122.552C77.5183 123.655 94.7944 128.345 105.829 117.862C106.472 120.692 106.818 123.581 106.863 126.483Z" fill="#E6E7E8"/>
<path d="M182.758 89.655V111.242C182.758 112.888 182.169 114.48 181.098 115.73L173 125.178C171.69 126.706 169.777 127.586 167.764 127.586H142.58C140.567 127.586 138.654 126.706 137.344 125.178L129.246 115.73C128.175 114.48 127.586 112.888 127.586 111.242V89.655C127.586 85.846 130.673 82.7585 134.482 82.7585H175.862C179.671 82.7585 182.758 85.8464 182.758 89.655Z" fill="#5E5F62"/>
<path d="M141.379 113.793C140.465 113.793 139.587 113.43 138.94 112.783C138.294 112.136 137.931 111.259 137.931 110.345V106.896C137.931 104.992 139.474 103.448 141.379 103.448C143.284 103.448 144.828 104.992 144.828 106.896V110.345C144.828 111.259 144.465 112.136 143.818 112.783C143.171 113.43 142.294 113.793 141.379 113.793Z" fill="#2C2F38"/>
<path d="M155.172 103.448C154.258 103.449 153.38 103.086 152.733 102.439C152.087 101.792 151.724 100.915 151.724 100V96.5516C151.724 94.6473 153.267 93.1031 155.172 93.1031C157.076 93.1031 158.621 94.6469 158.621 96.5516V100C158.621 100.914 158.258 101.792 157.611 102.439C156.964 103.085 156.087 103.448 155.172 103.448Z" fill="#2C2F38"/>
<path d="M168.965 113.793C168.051 113.793 167.173 113.43 166.526 112.783C165.879 112.136 165.517 111.259 165.517 110.345V106.896C165.517 104.992 167.06 103.448 168.965 103.448C170.87 103.448 172.413 104.992 172.413 106.896V110.345C172.414 111.259 172.051 112.136 171.404 112.783C170.757 113.43 169.879 113.793 168.965 113.793Z" fill="#2C2F38"/>
<path d="M155.172 141.379V175.862H134.482C130.678 175.851 127.597 172.77 127.586 168.966V148.276C127.597 144.471 130.678 141.39 134.482 141.379H155.172Z" fill="#14A085"/>
<path d="M182.758 148.276V168.966C182.747 172.77 179.666 175.851 175.862 175.862H155.172V141.379H175.862C179.666 141.391 182.747 144.471 182.758 148.276Z" fill="#CC4B4C"/>
<path d="M141.379 165.517C140.465 165.518 139.587 165.154 138.94 164.507C138.294 163.861 137.931 162.984 137.931 162.069V155.172C137.931 153.268 139.474 151.724 141.379 151.724C143.284 151.724 144.828 153.268 144.828 155.172V162.069C144.828 162.983 144.465 163.861 143.818 164.507C143.171 165.154 142.294 165.518 141.379 165.517Z" fill="#BDC3C7"/>
<path d="M168.966 162.069C168.052 162.062 167.175 161.705 166.518 161.069C166.213 160.734 165.969 160.349 165.794 159.931C165.599 159.522 165.505 159.073 165.518 158.621C165.53 157.707 165.887 156.833 166.518 156.172C166.681 156.023 166.853 155.885 167.033 155.758C167.226 155.627 167.435 155.522 167.656 155.447C167.851 155.348 168.06 155.278 168.276 155.241C168.73 155.137 169.203 155.137 169.657 155.241C169.872 155.279 170.081 155.348 170.276 155.447C170.496 155.523 170.704 155.627 170.896 155.758C171.077 155.885 171.251 156.023 171.415 156.172C172.044 156.834 172.401 157.708 172.415 158.621C172.409 159.071 172.315 159.516 172.138 159.93C171.963 160.348 171.719 160.733 171.414 161.069C170.756 161.703 169.88 162.061 168.966 162.069Z" fill="#2C2F38"/>
<path d="M20.6904 186.207C24.4993 186.207 27.5869 183.119 27.5869 179.31C27.5869 175.501 24.4993 172.414 20.6904 172.414C16.8816 172.414 13.7939 175.501 13.7939 179.31C13.7939 183.119 16.8816 186.207 20.6904 186.207Z" fill="#E6E7E8"/>
<path d="M20.6904 82.7586C24.4993 82.7586 27.5869 79.6709 27.5869 75.8621C27.5869 72.0533 24.4993 68.9656 20.6904 68.9656C16.8816 68.9656 13.7939 72.0533 13.7939 75.8621C13.7939 79.6709 16.8816 82.7586 20.6904 82.7586Z" fill="#E6E7E8"/>
<path d="M103.449 82.7586C107.258 82.7586 110.346 79.6709 110.346 75.8621C110.346 72.0533 107.258 68.9656 103.449 68.9656C99.6404 68.9656 96.5527 72.0533 96.5527 75.8621C96.5527 79.6709 99.6404 82.7586 103.449 82.7586Z" fill="#E6E7E8"/>
<path d="M103.449 186.207C107.258 186.207 110.346 183.119 110.346 179.31C110.346 175.501 107.258 172.414 103.449 172.414C99.6404 172.414 96.5527 175.501 96.5527 179.31C96.5527 183.119 99.6404 186.207 103.449 186.207Z" fill="#E6E7E8"/>
<path d="M100 37.9312C111.427 37.9312 120.69 33.2997 120.69 27.5863C120.69 21.873 111.427 17.2414 100 17.2414C88.5737 17.2414 79.3105 21.873 79.3105 27.5863C79.3105 33.2997 88.5737 37.9312 100 37.9312Z" fill="#BDC3C7"/>
<path d="M62.0693 141.379C69.687 141.379 75.8623 135.204 75.8623 127.586C75.8623 119.969 69.687 113.793 62.0693 113.793C54.4517 113.793 48.2764 119.969 48.2764 127.586C48.2764 135.204 54.4517 141.379 62.0693 141.379Z" fill="#BDC3C7"/>
</svg>
