<svg width="448" height="370" viewBox="0 0 448 370" fill="none" xmlns="http://www.w3.org/2000/svg">
<g opacity="0.1">
<path opacity="0.1" d="M41.0053 250.932C40.7501 249.583 40.349 248.271 39.8021 247.031C39.474 246.266 39.5834 245.391 40.1303 244.734L42.3542 242L39.0001 237.917L35.9011 239.557C35.1719 239.958 34.2605 239.885 33.5678 239.411C32.4376 238.646 31.2344 237.99 29.9584 237.479C29.1928 237.187 28.6459 236.458 28.573 235.62L28.2449 232.12L22.9949 231.609L21.974 235C21.7188 235.802 21.0626 236.385 20.224 236.531C18.8751 236.786 17.5626 237.187 16.323 237.734C15.5574 238.062 14.6824 237.953 14.0261 237.406L11.2917 235.182L7.20842 238.536L8.84904 241.635C9.25008 242.365 9.17717 243.276 8.70321 243.969C7.93759 245.099 7.28133 246.302 6.77091 247.578C6.47925 248.344 5.75008 248.891 4.91154 248.964L1.41155 249.292L0.901123 254.542L4.29175 255.562C5.09384 255.818 5.67716 256.474 5.823 257.312C6.0782 258.661 6.47925 259.974 7.02613 261.214C7.35425 261.979 7.24488 262.891 6.698 263.51L4.47404 266.245L7.8282 270.328L10.9272 268.687C11.6563 268.286 12.5678 268.359 13.2605 268.833C14.3907 269.599 15.5938 270.255 16.8699 270.766C17.6355 271.057 18.1824 271.786 18.2553 272.625L18.5834 276.125L23.8334 276.635L24.8542 273.245C25.1094 272.443 25.7657 271.859 26.6042 271.714C27.9532 271.458 29.2657 271.057 30.5053 270.51C31.2709 270.182 32.1459 270.292 32.8021 270.839L35.5365 273.062L39.6199 269.708L37.9792 266.609C37.5782 265.88 37.6511 264.969 38.1251 264.276C38.8907 263.146 39.5469 261.943 40.0574 260.667C40.349 259.901 41.0782 259.354 41.9167 259.281L45.4167 258.953L45.9271 253.703L42.5365 252.682C41.7709 252.427 41.1511 251.734 41.0053 250.932ZM22.1199 267.484C14.7553 266.755 9.35946 260.193 10.0886 252.828C10.8178 245.464 17.3803 240.068 24.7449 240.797C32.1094 241.526 37.5053 248.089 36.7761 255.453C36.0469 262.818 29.4844 268.177 22.1199 267.484Z" fill="#2A94F4"/>
<path opacity="0.1" d="M14.5366 253.229C15.0105 248.307 19.3855 244.734 24.3074 245.208C29.2293 245.682 32.8022 250.057 32.3282 254.979C31.8543 259.901 27.4793 263.474 22.5574 263C17.6355 262.526 14.0626 258.151 14.5366 253.229Z" fill="#2A94F4"/>
</g>
<path opacity="0.1" d="M204.229 369.823C295.342 369.823 369.203 363.849 369.203 356.479C369.203 349.11 295.342 343.135 204.229 343.135C113.116 343.135 39.2551 349.11 39.2551 356.479C39.2551 363.849 113.116 369.823 204.229 369.823Z" fill="#2A94F4"/>
<path opacity="0.19" d="M154.208 313.932C154.208 317.031 156.724 319.547 159.823 319.547H361.547C364.646 319.547 367.161 317.031 367.161 313.932V140.245H154.245V313.932H154.208Z" fill="#58638C"/>
<path d="M217.573 242.219C218.521 245.5 219.833 248.672 221.51 251.698C222.531 253.521 222.458 255.781 221.292 257.531L216.406 264.859L225.776 274.229L233.104 269.344C234.854 268.177 237.115 268.104 238.937 269.125C241.927 270.802 245.099 272.115 248.417 273.062C250.422 273.646 251.953 275.286 252.391 277.365L254.104 286.005H267.338L269.088 277.328C269.49 275.286 271.021 273.609 273.062 273.026C276.344 272.078 279.516 270.766 282.542 269.089C284.365 268.068 286.625 268.141 288.375 269.307L295.703 274.193L305.073 264.823L300.187 257.495C299.021 255.745 298.948 253.484 299.969 251.661C301.646 248.672 302.958 245.5 303.906 242.182C304.49 240.177 306.13 238.646 308.208 238.208L316.849 236.495V223.26L308.172 221.51C306.13 221.109 304.453 219.578 303.87 217.536C302.922 214.255 301.609 211.083 299.932 208.057C298.911 206.234 298.984 203.974 300.151 202.224L305.036 194.896L295.667 185.526L288.338 190.411C286.588 191.578 284.328 191.651 282.505 190.63C279.516 188.953 276.344 187.641 273.026 186.693C271.021 186.109 269.49 184.469 269.052 182.391L267.338 173.75H254.104L252.354 182.427C251.953 184.469 250.422 186.146 248.38 186.729C245.099 187.677 241.927 188.99 238.901 190.667C237.078 191.687 234.818 191.615 233.068 190.448L225.739 185.562L216.37 194.932L221.255 202.26C222.422 204.01 222.495 206.271 221.474 208.094C219.797 211.083 218.484 214.255 217.536 217.573C216.953 219.578 215.312 221.109 213.234 221.547L204.594 223.26V236.495L213.271 238.245C215.349 238.646 217.026 240.177 217.573 242.219ZM260.667 196.245C279.224 196.245 294.281 211.302 294.281 229.859C294.281 248.417 279.224 263.474 260.667 263.474C242.109 263.474 227.052 248.417 227.052 229.859C227.052 211.339 242.109 196.281 260.667 196.245ZM154.208 112.208V129.016H367.125V112.208C367.125 109.109 364.609 106.594 361.51 106.594H159.786C156.687 106.594 154.208 109.109 154.208 112.208ZM210.245 112.208H221.437V123.438H210.245V112.208ZM187.823 112.208H199.016V123.438H187.823V112.208ZM165.401 112.208H176.594V123.438H165.401V112.208Z" fill="#58638C"/>
<path d="M283.089 229.896C283.089 242.255 273.063 252.318 260.667 252.318C248.271 252.318 238.245 242.292 238.245 229.896C238.245 217.536 248.271 207.474 260.667 207.474C273.026 207.474 283.089 217.5 283.089 229.896ZM266.281 11.3646C266.281 8.26562 263.766 5.75 260.667 5.75H58.9427C55.8437 5.75 53.3281 8.26562 53.3281 11.3646V28.1719H266.245V11.3646H266.281ZM75.75 22.5573H64.5573V11.3646H75.75V22.5573ZM98.1719 22.5573H86.9792V11.3646H98.1719V22.5573ZM120.594 22.5573H109.401V11.3646H120.594V22.5573Z" fill="#58638C"/>
<path opacity="0.19" d="M142.979 112.208C142.979 102.912 150.49 95.4011 159.786 95.4011H266.245V39.3646H53.3281V213.052C53.3281 216.151 55.8437 218.667 58.9427 218.667H142.979V112.208ZM187.823 67.4011H199.016V78.5938H187.823V67.4011ZM165.401 67.4011H176.594V78.5938H165.401V67.4011ZM142.979 67.4011H154.172V78.5938H142.979V67.4011ZM120.594 201.859H75.75V190.667H120.594V201.859ZM120.594 179.438H75.75V168.245H120.594V179.438ZM120.594 157.052H75.75V145.859H120.594V157.052ZM120.594 134.63H75.75V123.438H120.594V134.63ZM120.594 112.208H75.75V101.016H120.594V112.208ZM120.594 78.5938V67.4011H131.786V78.5938H120.594Z" fill="#58638C"/>
<path d="M186.839 269.672L187.057 263.766L191.25 265.042L192.052 272.406C192.052 272.406 188.042 272.661 186.839 269.672Z" fill="#FCD2B1"/>
<path d="M187.203 269.708C188.187 270.109 189.828 270.474 191.87 270L191.615 268.323C191.615 268.323 192.781 269.016 193.073 270.547C193.365 272.042 193.437 271.641 195.333 272.807C197.266 273.974 197.12 276.599 197.12 276.599L182.828 276.234C182.828 276.234 182.427 273.354 185.016 270.292C185.526 269.635 186.437 269.38 187.203 269.708Z" fill="#0E538C"/>
<path d="M164.125 182.865C164.125 182.865 162.266 190.12 164.891 194.677C167.516 199.234 172.255 189.135 172.255 189.135C172.255 189.135 171.417 179.438 164.125 182.865Z" fill="#58638C"/>
<path d="M162.813 148.448C162.813 148.448 153.188 161.536 151.583 169.448C149.943 177.359 151.693 194.641 151.693 194.641H155.63C155.63 194.641 157.708 172.583 159.021 169.448C160.333 166.24 168.865 151.437 168.865 151.437L162.813 148.448Z" fill="#FFE3CA"/>
<path d="M197.703 275.943H161.172V280.135H197.703V275.943Z" fill="#D3D3D3"/>
<path d="M192.635 304.891H153.37V309.083H192.635V304.891Z" fill="#D3D3D3"/>
<path d="M189.099 332.891H149.833V337.083H189.099V332.891Z" fill="#D3D3D3"/>
<path d="M145.896 360.745H141.521L173.75 209.151H176.193L145.896 360.745Z" fill="#D3D3D3"/>
<path d="M191.578 360.745H187.203L212.76 204.885L214.911 205.906L191.578 360.745Z" fill="#D3D3D3"/>
<path d="M182.719 360.745L206.234 209.406L173.75 209.151L141.521 360.745H136.49L169.229 204.885H212.76L188.588 360.745H181.99" fill="#F7F7F7"/>
<path d="M167.953 269.672L168.172 263.766L172.365 265.042L173.167 272.406C173.13 272.406 169.156 272.661 167.953 269.672Z" fill="#FCD2B1"/>
<path d="M209.333 136.417C209.333 136.417 219.724 135.651 220.964 130.839C222.203 126.026 221.984 113.047 221.984 113.047H225.594C225.594 113.047 228.073 125.115 227.927 130.839C227.781 136.562 220.818 146.333 209.333 145.714C197.885 145.094 209.333 136.417 209.333 136.417Z" fill="#FFE3CA"/>
<path d="M175.682 135.797C175.682 135.797 169.667 136.417 167.187 139.042C165.984 140.318 158.51 149.578 158.802 151.583L167.588 157.052L174.771 147.099L175.682 135.797Z" fill="#2A94F4"/>
<path d="M166.276 180.385C166.276 180.385 163.687 188.042 166.13 196.427C168.573 204.813 168.573 221.729 168.354 226.141C168.135 230.552 164.016 243.312 167.516 265.844H168.354H172.911C172.911 265.844 176.193 242.219 178.088 232.156C179.875 222.714 182.135 199.162 182.135 199.162C182.135 199.162 188.917 221.51 187.786 227.271C186.547 233.615 186.401 265.807 186.401 265.807H191.833C191.833 265.807 197.922 238.099 198.286 230.661C198.687 223.224 197.849 181.516 197.849 181.516C197.849 181.516 179.766 169.229 166.276 180.385Z" fill="#0B4870"/>
<path d="M184.797 121.25L179.292 138.094L189.245 140.062L191.432 122.599L184.797 121.25Z" fill="#FCD2B1"/>
<path d="M190.448 134.849C190.448 134.849 197.193 136.234 197.885 145.057C198.578 153.88 199.526 191.505 199.526 194.75C199.307 196.245 173.094 201.24 165.292 193.656C163.323 191.724 169.776 158.984 168.865 150.38C167.917 141.813 173.021 130.911 190.448 134.849Z" fill="#2A94F4"/>
<path d="M198.286 152.495C198.286 152.495 200.984 146.333 209.333 145.714C209.333 145.714 211.339 139.99 209.333 136.417C209.333 136.417 194.203 133.318 188.443 134.484C182.682 135.651 198.286 152.495 198.286 152.495Z" fill="#2A94F4"/>
<path d="M225.557 116.292C225.557 116.292 226.687 110.24 224.682 106.813C223.479 104.771 222.167 103.823 220.854 104.188C219.979 104.443 219.615 105.974 219.833 106.849C220.125 107.979 221.073 111.078 221.583 111.953C221.583 111.953 220.672 111.953 219.724 109.911C218.812 107.906 218.12 110.859 218.849 112.245C219.943 114.25 223.552 119.755 225.557 116.292Z" fill="#FFE3CA"/>
<path d="M168.281 269.708C169.266 270.109 170.906 270.474 172.948 270L172.693 268.323C172.693 268.323 173.859 269.016 174.151 270.547C174.443 272.042 174.516 271.641 176.411 272.807C178.344 273.974 178.198 276.599 178.198 276.599L163.906 276.234C163.906 276.234 163.505 273.354 166.094 270.292C166.641 269.635 167.516 269.38 168.281 269.708Z" fill="#0E538C"/>
<path d="M198.906 118.734C198.651 116.62 203.245 115.198 194.458 109C189.974 105.865 182.172 107.25 179.766 111.99C177.359 116.729 178.635 117.203 176.776 117.531C174.917 117.896 176.885 132.552 188.115 132.37C199.38 132.188 198.906 118.734 198.906 118.734Z" fill="#0B4870"/>
<path d="M164.745 177.76H198.943C200.328 177.76 201.458 178.781 201.604 180.13C202.188 185.271 202.807 196.938 196.792 197.776C189.063 198.87 186.583 190.521 186.583 182.755L164.125 182.865C164.125 182.865 163.359 179.146 164.745 177.76Z" fill="#58638C"/>
<path d="M155.375 192.599C155.375 192.599 154.719 200.365 157.234 202.479C159.75 204.63 152.786 205.578 151.073 201.641C149.359 197.703 151.693 192.599 151.693 192.599H155.375Z" fill="#FFE3CA"/>
<path d="M154.719 193.62C154.719 193.62 157.052 194.021 157.927 196.537C158.437 197.958 158.729 199.49 158.875 200.547C158.984 201.24 158.182 201.714 157.599 201.276C157.016 200.839 156.469 200.182 156.542 199.052C156.724 196.682 153.88 197.375 153.88 197.375C153.88 197.375 152.932 194.568 154.719 193.62Z" fill="#FFE3CA"/>
<path d="M192.891 183.12H191.104V177.833C191.104 177.542 191.359 177.287 191.651 177.287H192.38C192.672 177.287 192.927 177.542 192.927 177.833V183.12H192.891ZM195.552 183.12H193.766V179.62C193.766 179.328 194.021 179.073 194.313 179.073H195.042C195.333 179.073 195.589 179.328 195.589 179.62V183.12H195.552ZM198.943 183.12H196.464V175.5C196.464 175.099 196.792 174.771 197.193 174.771H198.214C198.615 174.771 198.943 175.099 198.943 175.5V183.12Z" fill="#F7F7F7"/>
<path opacity="0.32" d="M200.948 183.12H187.167V184.286H200.948V183.12Z" fill="#161616"/>
<path d="M74.2188 288.776C73.5626 287.099 72.7605 285.458 71.7396 283.964C71.1198 283.052 71.0834 281.849 71.5938 280.901L73.8542 276.818L68.5313 272.297L64.8855 275.214C64.0105 275.906 62.8438 276.052 61.823 275.578C60.1824 274.849 58.4324 274.266 56.6824 273.938C55.5886 273.719 54.7136 272.917 54.4219 271.859L53.1459 267.411L46.1824 267.995L45.6355 272.625C45.5261 273.719 44.7605 274.667 43.7396 275.068C42.0626 275.724 40.4219 276.526 38.9272 277.547C38.0157 278.167 36.8126 278.203 35.8647 277.693L31.7813 275.432L27.2605 280.755L30.1772 284.401C30.8699 285.276 31.0157 286.443 30.5417 287.464C29.8126 289.104 29.2292 290.854 28.9011 292.604C28.6824 293.698 27.8803 294.573 26.823 294.865L22.3386 296.141L22.922 303.104L27.5522 303.651C28.6459 303.76 29.5938 304.526 29.9949 305.547C30.6511 307.224 31.4532 308.865 32.474 310.359C33.0938 311.271 33.1303 312.474 32.6199 313.422L30.3595 317.505L35.6824 322.026L39.3282 319.109C40.2032 318.417 41.3699 318.271 42.3907 318.745C44.0313 319.474 45.7813 320.057 47.5313 320.385C48.6251 320.604 49.5001 321.406 49.7917 322.464L51.0678 326.948L58.0313 326.365L58.5782 321.734C58.6876 320.641 59.4532 319.693 60.474 319.292C62.1511 318.635 63.7917 317.833 65.2865 316.812C66.198 316.193 67.4011 316.156 68.349 316.667L72.4323 318.927L76.9532 313.604L74.0365 309.958C73.3438 309.083 73.198 307.917 73.6719 306.896C74.4011 305.255 74.9844 303.505 75.3126 301.755C75.5313 300.661 76.3334 299.786 77.3907 299.495L81.8751 298.219L81.2917 291.255L76.6615 290.708C75.5678 290.563 74.6199 289.797 74.2188 288.776ZM53.5834 314.844C43.8126 315.646 35.2449 308.391 34.4063 298.62C33.6042 288.849 40.8594 280.281 50.6303 279.443C60.4011 278.641 68.9688 285.896 69.8073 295.667C70.6094 305.438 63.3542 314.005 53.5834 314.844Z" fill="#58638C"/>
<path d="M40.3126 298.146C39.7657 291.62 44.6147 285.896 51.1042 285.349C57.6303 284.802 63.3542 289.651 63.9011 296.141C64.448 302.667 59.599 308.391 53.1095 308.938C46.5834 309.484 40.8595 304.672 40.3126 298.146Z" fill="#58638C"/>
<path d="M130.984 240.797C129.234 239.229 127.338 237.844 125.26 236.714C123.984 236.021 123.255 234.672 123.292 233.25L123.474 227.198L114.651 225.156L112.172 230.661C111.588 231.974 110.312 232.849 108.854 232.922C106.521 233.031 104.187 233.432 101.927 234.089C100.542 234.49 99.0468 234.089 98.0624 233.031L93.9426 228.62L86.2499 233.396L88.3645 239.083C88.8749 240.432 88.5832 241.964 87.5989 243.021C86.0312 244.771 84.6458 246.667 83.5155 248.745C82.8228 250.021 81.4739 250.75 80.052 250.714L73.9999 250.531L71.9583 259.354L77.4635 261.833C78.776 262.417 79.651 263.693 79.7239 265.151C79.8332 267.484 80.2343 269.818 80.8541 272.078C81.2551 273.464 80.8541 274.958 79.7968 275.943L75.3853 280.062L80.1614 287.755L85.8489 285.604C87.1978 285.094 88.6926 285.385 89.7864 286.37C91.5364 287.937 93.4322 289.323 95.5103 290.453C96.7864 291.146 97.552 292.495 97.4791 293.917L97.2968 299.969L106.12 302.01L108.599 296.505C109.182 295.193 110.458 294.318 111.917 294.245C114.25 294.135 116.583 293.734 118.844 293.115C120.229 292.714 121.724 293.115 122.708 294.172L126.828 298.583L134.521 293.807L132.406 288.12C131.896 286.771 132.187 285.24 133.172 284.182C134.739 282.432 136.125 280.536 137.255 278.458C137.948 277.182 139.297 276.453 140.719 276.49L146.771 276.672L148.812 267.849L143.307 265.37C141.995 264.786 141.12 263.51 141.047 262.052C140.937 259.719 140.536 257.385 139.917 255.125C139.516 253.74 139.917 252.245 140.974 251.26L145.385 247.141L140.609 239.448L134.922 241.562C133.573 242.036 132.078 241.745 130.984 240.797ZM122.599 283.125C111.807 289.87 97.5885 286.552 90.8437 275.76C84.0989 264.969 87.4166 250.75 98.2083 244.005C109 237.26 123.219 240.578 129.963 251.37C136.672 262.198 133.391 276.38 122.599 283.125Z" fill="#CCE9FF"/>
<path d="M97.3698 271.677C92.8854 264.495 95.0729 255.016 102.292 250.531C109.51 246.047 118.953 248.234 123.437 255.453C127.922 262.635 125.734 272.115 118.516 276.599C111.333 281.083 101.854 278.896 97.3698 271.677Z" fill="#CCE9FF"/>
<path d="M386.083 71.0833C384.661 72.9062 383.495 74.875 382.547 76.9895C381.964 78.2656 380.724 79.1406 379.302 79.2135L373.359 79.5052L372.047 88.2916L377.625 90.2968C378.937 90.7708 379.885 91.9739 380.068 93.3593C380.359 95.6562 380.906 97.8802 381.745 100.031C382.255 101.344 381.964 102.838 381.016 103.896L377.042 108.271L382.328 115.417L387.724 112.901C389 112.318 390.495 112.463 391.625 113.338C393.448 114.76 395.417 115.927 397.531 116.875C398.807 117.458 399.682 118.698 399.755 120.12L400.047 126.062L408.833 127.375L410.839 121.797C411.312 120.484 412.516 119.536 413.901 119.354C416.198 119.062 418.422 118.516 420.573 117.677C421.885 117.167 423.38 117.458 424.438 118.406L428.813 122.417L435.958 117.13L433.443 111.734C432.859 110.458 433.005 108.964 433.88 107.833C435.302 106.01 436.469 104.042 437.417 101.927C438 100.651 439.24 99.776 440.661 99.7031L446.604 99.4114L447.917 90.625L442.339 88.6198C441.026 88.1458 440.078 86.9427 439.896 85.5573C439.604 83.2604 439.057 81.0364 438.219 78.8854C437.708 77.5729 438 76.0781 438.948 75.0208L442.958 70.6458L437.672 63.5L432.276 66.0156C431 66.5989 429.505 66.4531 428.375 65.5781C426.552 64.1562 424.583 62.9895 422.469 62.0416C421.193 61.4583 420.318 60.2187 420.245 58.7968L419.953 52.8541L411.167 51.5416L409.161 57.1198C408.687 58.4323 407.484 59.3802 406.099 59.5625C403.802 59.8541 401.578 60.401 399.427 61.2395C398.115 61.75 396.62 61.4583 395.563 60.5104L391.188 56.5L384.042 61.7864L386.557 67.1822C387.104 68.4583 386.958 69.9531 386.083 71.0833ZM428.12 76.0052C435.521 86.0312 433.406 100.214 423.38 107.615C413.354 115.016 399.172 112.901 391.771 102.875C384.37 92.8489 386.484 78.6666 396.51 71.2656C406.573 63.8645 420.719 65.9791 428.12 76.0052Z" fill="#58638C"/>
<path d="M418.896 101.563C412.187 106.521 402.781 105.099 397.823 98.3906C392.865 91.6823 394.286 82.276 400.995 77.3177C407.703 72.3594 417.109 73.7813 422.068 80.4896C427.026 87.1615 425.604 96.6042 418.896 101.563Z" fill="#58638C"/>
<path d="M296.104 41.625C295.557 44.5781 295.375 47.5677 295.484 50.5573C295.557 52.3802 294.646 54.1302 293.042 55.0417L286.37 58.8698L290.052 69.8073L297.708 68.8229C299.531 68.6041 301.318 69.4062 302.339 70.901C304.052 73.3802 306.021 75.6406 308.208 77.6458C309.557 78.8854 310.104 80.7812 309.63 82.5312L307.625 89.9323L317.943 95.0729L322.682 88.9844C323.813 87.526 325.636 86.8333 327.422 87.1614C330.375 87.7083 333.365 87.9271 336.354 87.7812C338.177 87.7083 339.927 88.6198 340.839 90.2239L344.667 96.8958L355.604 93.2135L354.62 85.5573C354.401 83.7344 355.203 81.9479 356.698 80.9271C359.177 79.25 361.438 77.2448 363.443 75.0573C364.682 73.7083 366.578 73.1614 368.328 73.6354L375.766 75.6406L380.906 65.2864L374.781 60.5469C373.323 59.4167 372.63 57.5937 372.958 55.8073C373.505 52.8542 373.724 49.8646 373.578 46.875C373.505 45.0521 374.453 43.3021 376.021 42.3906L382.693 38.5625L379.011 27.625L371.354 28.6094C369.531 28.8281 367.745 28.026 366.724 26.5312C365.047 24.0521 363.042 21.7917 360.854 19.7865C359.505 18.5469 358.958 16.651 359.432 14.901L361.438 7.46354L351.156 2.32292L346.417 8.41146C345.287 9.86979 343.464 10.5625 341.677 10.2344C338.724 9.6875 335.734 9.46875 332.745 9.61458C330.922 9.6875 329.172 8.77604 328.26 7.17187L324.432 0.5L313.495 4.18229L314.479 11.8385C314.698 13.6615 313.896 15.4479 312.401 16.4687C309.922 18.1458 307.662 20.151 305.656 22.3385C304.417 23.6875 302.521 24.2344 300.771 23.7604L293.333 21.7552L288.193 32.1094L294.281 36.8489C295.776 37.9792 296.469 39.8021 296.104 41.625ZM347.62 22.4115C362.13 29.6302 368.037 47.2396 360.854 61.75C353.635 76.2604 336.026 82.1666 321.516 74.9844C307.005 67.7656 301.099 50.1562 308.281 35.6458C315.5 21.1354 333.109 15.2292 347.62 22.4115Z" fill="#CCE9FF"/>
<path d="M352.068 57.4114C347.255 67.0729 335.516 71.0469 325.854 66.2344C316.193 61.4219 312.219 49.6823 317.031 40.0208C321.844 30.3594 333.583 26.3854 343.245 31.1979C352.943 35.9739 356.88 47.7135 352.068 57.4114Z" fill="#CCE9FF"/>
</svg>
