<svg width="444" height="259" viewBox="0 0 444 259" fill="none" xmlns="http://www.w3.org/2000/svg">
<path opacity="0.23" d="M428.25 258.743H15.75C7.4655 258.743 0.75 252.027 0.75 243.743C0.75 235.458 7.4655 228.743 15.75 228.743H428.25C436.535 228.743 443.25 235.458 443.25 243.743C443.25 252.027 436.535 258.743 428.25 258.743Z" fill="#1C1C1C"/>
<path d="M252.372 210.255H49.8721C45.7298 210.255 42.3721 206.897 42.3721 202.755V54.2552C42.3721 50.113 45.7298 46.7552 49.8721 46.7552H252.372C256.514 46.7552 259.872 50.113 259.872 54.2552V202.755C259.872 206.897 256.514 210.255 252.372 210.255Z" fill="#B4AAC1"/>
<path d="M46.8721 198.207V54.256C46.8721 52.5992 48.2153 51.256 49.8721 51.256H252.372C254.029 51.256 255.372 52.5992 255.372 54.256V198.207C255.372 199.863 254.029 201.207 252.372 201.207H49.8721C48.2153 201.207 46.8721 199.863 46.8721 198.207Z" fill="#D3D3D1"/>
<path d="M252.372 210.255H49.8721C45.7298 210.255 42.3721 206.897 42.3721 202.755V54.2552C42.3721 50.113 45.7298 46.7552 49.8721 46.7552H252.372C256.514 46.7552 259.872 50.113 259.872 54.2552V202.755C259.872 206.897 256.514 210.255 252.372 210.255Z" stroke="#0C1740" stroke-width="6" stroke-miterlimit="10" stroke-linecap="round" stroke-linejoin="round"/>
<path d="M55.8721 174.68V65.1798C55.8721 61.8663 58.5586 59.1798 61.8721 59.1798H240.372C243.685 59.1798 246.372 61.8663 246.372 65.1798V174.68C246.372 177.993 243.685 180.68 240.372 180.68H61.8721C58.5586 180.68 55.8721 177.993 55.8721 174.68Z" fill="#B4AAC1"/>
<path d="M61.8721 177.68C60.2176 177.68 58.8721 176.334 58.8721 174.68V65.1798C58.8721 63.5253 60.2176 62.1798 61.8721 62.1798H240.372C242.027 62.1798 243.372 63.5253 243.372 65.1798V174.68C243.372 176.334 242.027 177.68 240.372 177.68H61.8721Z" fill="#0C1740"/>
<g opacity="0.63">
<path opacity="0.63" d="M166.736 118.453C161.605 115.991 156.475 116.942 151.344 118.151C151.344 113.02 151.344 107.889 151.344 102.759C156.475 101.549 161.605 100.598 166.736 103.061C166.736 108.191 166.736 113.322 166.736 118.453ZM166.736 136.365C161.605 133.903 156.475 134.854 151.344 136.063C151.344 130.932 151.344 125.801 151.344 120.671C156.475 119.461 161.605 118.511 166.736 120.973C166.736 126.104 166.736 131.234 166.736 136.365ZM148.812 136.668C143.681 137.877 138.55 138.827 133.42 136.365C133.42 131.234 133.42 126.104 133.42 120.973C138.55 123.435 143.681 122.484 148.812 121.275C148.812 126.405 148.812 131.536 148.812 136.668ZM148.812 118.755C143.681 119.965 138.55 120.915 133.42 118.453C133.42 113.322 133.42 108.191 133.42 103.061C138.55 105.523 143.681 104.572 148.812 103.363C148.812 108.494 148.812 113.624 148.812 118.755Z" fill="#4988E2"/>
</g>
<path d="M165.56 210.255H136.685C136.685 220.122 126.916 228.319 114.287 229.048L103.545 229.668C97.8323 229.998 93.3713 234.64 93.3713 240.255H208.871C208.871 234.64 204.41 229.998 198.698 229.668L187.955 229.048C175.328 228.319 165.56 220.123 165.56 210.255Z" fill="#B4AAC1"/>
<path d="M114.288 229.048L103.546 229.668C97.8331 229.998 93.3721 234.64 93.3721 240.255H208.872C208.872 234.64 204.411 229.998 198.698 229.668L187.956 229.048C186.495 228.964 185.074 228.775 183.701 228.5H118.544C117.17 228.776 115.749 228.964 114.288 229.048Z" fill="#D3D3D1"/>
<path d="M170.005 221.141C167.201 218.058 165.56 214.298 165.56 210.256H136.685C136.685 214.298 135.044 218.059 132.239 221.141H170.005Z" fill="#958BA5"/>
<path d="M165.56 210.255H136.685C136.685 220.122 126.916 228.319 114.287 229.048L103.545 229.668C97.8323 229.998 93.3713 234.64 93.3713 240.255H208.871C208.871 234.64 204.41 229.998 198.698 229.668L187.955 229.048C175.328 228.319 165.56 220.123 165.56 210.255Z" stroke="#0C1740" stroke-width="6" stroke-miterlimit="10" stroke-linecap="round" stroke-linejoin="round"/>
<path d="M383.156 229.755H284.156C280.843 229.755 278.156 227.069 278.156 223.755V9.25524C278.156 5.94173 280.843 3.25523 284.156 3.25523H383.156C386.47 3.25523 389.156 5.94173 389.156 9.25524V223.755C389.156 227.07 386.47 229.755 383.156 229.755Z" fill="#364477"/>
<path d="M383.156 229.755H284.156C280.843 229.755 278.156 227.069 278.156 223.755V9.25524C278.156 5.94173 280.843 3.25523 284.156 3.25523H383.156C386.47 3.25523 389.156 5.94173 389.156 9.25524V223.755C389.156 227.07 386.47 229.755 383.156 229.755Z" stroke="#0C1740" stroke-width="6" stroke-miterlimit="10" stroke-linecap="round" stroke-linejoin="round"/>
<path d="M333.656 222.255C307.189 222.255 285.656 200.723 285.656 174.255V11.5052C285.656 11.092 285.992 10.7552 286.406 10.7552H380.906C381.32 10.7552 381.656 11.092 381.656 11.5052V174.255C381.656 200.723 360.124 222.255 333.656 222.255Z" fill="#3E5080"/>
<path d="M285.656 27.6415V164.165C285.656 191.102 307.189 213.017 333.656 213.017C360.124 213.017 381.656 191.102 381.656 164.165V27.6415H285.656Z" fill="#364477"/>
<path d="M333.656 222.255C307.189 222.255 285.656 200.723 285.656 174.255V11.5052C285.656 11.092 285.992 10.7552 286.406 10.7552H380.906C381.32 10.7552 381.656 11.092 381.656 11.5052V174.255C381.656 200.723 360.124 222.255 333.656 222.255Z" stroke="#0C1740" stroke-width="3" stroke-miterlimit="10" stroke-linecap="round" stroke-linejoin="round"/>
<path d="M333.656 204.266C307.189 204.266 285.656 182.734 285.656 156.266V11.506C285.656 11.0927 285.992 10.756 286.406 10.756H380.906C381.32 10.756 381.656 11.0927 381.656 11.506V156.266C381.656 182.734 360.124 204.266 333.656 204.266Z" fill="#485D8C"/>
<path d="M333.656 204.266C307.189 204.266 285.656 182.734 285.656 156.266V11.506C285.656 11.0927 285.992 10.756 286.406 10.756H380.906C381.32 10.756 381.656 11.0927 381.656 11.506V156.266C381.656 182.734 360.124 204.266 333.656 204.266Z" stroke="#0C1740" stroke-width="3" stroke-miterlimit="10" stroke-linecap="round" stroke-linejoin="round"/>
<path d="M375.656 229.755H291.656V240.255H375.656V229.755Z" fill="#263866"/>
<path d="M375.656 229.755H291.656V235.005H375.656V229.755Z" fill="#1B2F5B"/>
<path d="M375.656 229.755H291.656V240.255H375.656V229.755Z" stroke="#0C1740" stroke-width="6" stroke-miterlimit="10" stroke-linecap="round" stroke-linejoin="round"/>
<path d="M372.268 36.472H295.045C293.174 36.472 291.656 34.9547 291.656 33.0835V20.7175C291.656 18.8462 293.174 17.329 295.045 17.329H372.268C374.139 17.329 375.656 18.8462 375.656 20.7175V33.0835C375.656 34.9555 374.139 36.472 372.268 36.472Z" fill="#364477"/>
<path d="M372.268 36.472H295.045C293.174 36.472 291.656 34.9547 291.656 33.0835V20.7175C291.656 18.8462 293.174 17.329 295.045 17.329H372.268C374.139 17.329 375.656 18.8462 375.656 20.7175V33.0835C375.656 34.9555 374.139 36.472 372.268 36.472Z" stroke="#0C1740" stroke-width="2" stroke-miterlimit="10" stroke-linecap="round" stroke-linejoin="round"/>
<path d="M372.268 64.0165H320.062C318.191 64.0165 316.673 62.4993 316.673 60.628V52.0683C316.673 50.197 318.191 48.6797 320.062 48.6797H372.268C374.139 48.6797 375.656 50.197 375.656 52.0683V60.628C375.656 62.4993 374.139 64.0165 372.268 64.0165Z" fill="#364477"/>
<path d="M372.268 64.0165H320.062C318.191 64.0165 316.673 62.4993 316.673 60.628V52.0683C316.673 50.197 318.191 48.6797 320.062 48.6797H372.268C374.139 48.6797 375.656 50.197 375.656 52.0683V60.628C375.656 62.4993 374.139 64.0165 372.268 64.0165Z" stroke="#0C1740" stroke-width="2" stroke-miterlimit="10" stroke-linecap="round" stroke-linejoin="round"/>
<path d="M335.016 177.545C342.377 177.545 348.344 171.577 348.344 164.217C348.344 156.856 342.377 150.888 335.016 150.888C327.655 150.888 321.688 156.856 321.688 164.217C321.688 171.577 327.655 177.545 335.016 177.545Z" fill="#5873A3"/>
<path d="M374.304 106.392H293.008C292.261 106.392 291.656 105.786 291.656 105.039V86.743C291.656 85.996 292.261 85.3907 293.008 85.3907H374.305C375.052 85.3907 375.657 85.996 375.657 86.743V105.039C375.656 105.786 375.051 106.392 374.304 106.392Z" fill="#364477"/>
<path d="M333.656 135.152C337.92 135.152 341.376 131.696 341.376 127.433C341.376 123.169 337.92 119.713 333.656 119.713C329.393 119.713 325.936 123.169 325.936 127.433C325.936 131.696 329.393 135.152 333.656 135.152Z" fill="#0C1740"/>
<path d="M333.656 134.537C337.58 134.537 340.76 131.356 340.76 127.433C340.76 123.509 337.58 120.329 333.656 120.329C329.733 120.329 326.552 123.509 326.552 127.433C326.552 131.356 329.733 134.537 333.656 134.537Z" fill="#1F2F63"/>
<path d="M365.353 98.5165H351.243C350.79 98.5165 350.423 98.149 350.423 97.696V94.0862C350.423 93.6332 350.79 93.2657 351.243 93.2657H365.353C365.806 93.2657 366.173 93.6332 366.173 94.0862V97.696C366.173 98.149 365.806 98.5165 365.353 98.5165Z" fill="#0C1740"/>
<path d="M351.172 95.8211V94.0862C351.172 94.0472 351.204 94.0157 351.243 94.0157H365.353C365.392 94.0157 365.423 94.0472 365.423 94.0862V95.8211C365.423 95.8601 365.392 95.8916 365.353 95.8916H351.243C351.204 95.8916 351.172 95.8601 351.172 95.8211Z" fill="#485D8C"/>
<path d="M346.04 98.5165H331.931C331.478 98.5165 331.11 98.149 331.11 97.696V94.0862C331.11 93.6332 331.478 93.2657 331.931 93.2657H346.04C346.493 93.2657 346.861 93.6332 346.861 94.0862V97.696C346.86 98.149 346.493 98.5165 346.04 98.5165Z" fill="#0C1740"/>
<path d="M331.86 95.8211V94.0862C331.86 94.0472 331.891 94.0157 331.93 94.0157H346.04C346.079 94.0157 346.111 94.0472 346.111 94.0862V95.8211C346.111 95.8601 346.079 95.8916 346.04 95.8916H331.93C331.891 95.8916 331.86 95.8601 331.86 95.8211Z" fill="#485D8C"/>
<path opacity="0.51" d="M232.579 195.1C235.064 195.1 237.079 193.085 237.079 190.6C237.079 188.115 235.064 186.1 232.579 186.1C230.093 186.1 228.079 188.115 228.079 190.6C228.079 193.085 230.093 195.1 232.579 195.1Z" fill="#0C1740"/>
<path d="M232.579 194.777C234.886 194.777 236.756 192.907 236.756 190.6C236.756 188.293 234.886 186.422 232.579 186.422C230.272 186.422 228.401 188.293 228.401 190.6C228.401 192.907 230.272 194.777 232.579 194.777Z" fill="white"/>
<path opacity="0.51" d="M222.172 192.85C223.415 192.85 224.422 191.843 224.422 190.6C224.422 189.357 223.415 188.35 222.172 188.35C220.93 188.35 219.922 189.357 219.922 190.6C219.922 191.843 220.93 192.85 222.172 192.85Z" fill="#0C1740"/>
<path d="M222.173 192.683C223.323 192.683 224.256 191.751 224.256 190.6C224.256 189.449 223.323 188.516 222.173 188.516C221.022 188.516 220.089 189.449 220.089 190.6C220.089 191.751 221.022 192.683 222.173 192.683Z" fill="white"/>
<g opacity="0.49">
<path opacity="0.49" d="M147.308 189.375L145.785 190.898L151.879 196.991L153.402 195.468L147.308 189.375Z" fill="#0C1740"/>
<path opacity="0.49" d="M150.355 186.328L147.309 189.375L148.832 190.898L151.879 187.851L150.355 186.328Z" fill="#0C1740"/>
<path opacity="0.49" d="M154.926 190.898L151.879 193.945L153.402 195.468L156.449 192.421L154.926 190.898Z" fill="#0C1740"/>
<path opacity="0.49" d="M152.64 188.613L149.594 191.66L151.117 193.183L154.164 190.136L152.64 188.613Z" fill="#0C1740"/>
</g>
<path d="M329.707 161.035L327.586 163.156L336.071 171.641L338.192 169.52L329.707 161.035Z" fill="#485D8C"/>
<path d="M333.95 156.792L329.707 161.035L331.828 163.156L336.071 158.914L333.95 156.792Z" fill="#485D8C"/>
<path d="M340.313 163.156L336.071 167.399L338.192 169.52L342.435 165.277L340.313 163.156Z" fill="#485D8C"/>
<path d="M337.131 159.975L332.888 164.217L335.01 166.339L339.252 162.096L337.131 159.975Z" fill="#485D8C"/>
<path d="M369.61 58.6097H321.735C321.218 58.6097 320.798 58.1897 320.798 57.6722V54.4225C320.798 53.905 321.218 53.485 321.735 53.485H369.61C370.127 53.485 370.547 53.905 370.547 54.4225V57.6722C370.548 58.1905 370.128 58.6097 369.61 58.6097Z" fill="#0C1740"/>
<path d="M360.923 60.1728H349.798C347.519 60.1728 345.673 58.3263 345.673 56.0478C345.673 53.7693 347.519 51.9228 349.798 51.9228H360.923C363.201 51.9228 365.048 53.7693 365.048 56.0478C365.048 58.3255 363.201 60.1728 360.923 60.1728Z" fill="#0C1740"/>
<path d="M322.297 56.0477C322.297 55.4613 322.773 54.985 323.36 54.985H367.985C368.572 54.985 369.048 55.4605 369.048 56.0477C369.048 56.6342 368.572 57.1105 367.985 57.1105H323.36C322.774 57.1097 322.297 56.6342 322.297 56.0477Z" fill="#091438"/>
<path d="M322.953 98.5165C324.403 98.5165 325.578 97.3413 325.578 95.8915C325.578 94.4418 324.403 93.2665 322.953 93.2665C321.503 93.2665 320.328 94.4418 320.328 95.8915C320.328 97.3413 321.503 98.5165 322.953 98.5165Z" fill="#0C1740"/>
<path d="M312.28 98.5165C313.729 98.5165 314.905 97.3413 314.905 95.8915C314.905 94.4418 313.729 93.2665 312.28 93.2665C310.83 93.2665 309.655 94.4418 309.655 95.8915C309.655 97.3413 310.83 98.5165 312.28 98.5165Z" fill="#0C1740"/>
<path opacity="0.58" d="M322.953 98.5165C324.403 98.5165 325.578 97.3413 325.578 95.8915C325.578 94.4418 324.403 93.2665 322.953 93.2665C321.503 93.2665 320.328 94.4418 320.328 95.8915C320.328 97.3413 321.503 98.5165 322.953 98.5165Z" stroke="#1AC17D" stroke-width="2" stroke-miterlimit="10"/>
<path opacity="0.58" d="M312.28 98.5165C313.729 98.5165 314.905 97.3413 314.905 95.8915C314.905 94.4418 313.729 93.2665 312.28 93.2665C310.83 93.2665 309.655 94.4418 309.655 95.8915C309.655 97.3413 310.83 98.5165 312.28 98.5165Z" stroke="#F9232E" stroke-width="2" stroke-miterlimit="10"/>
<path d="M330.52 123.735C329.471 124.626 328.802 125.952 328.802 127.433C328.802 130.109 330.98 132.287 333.656 132.287C336.333 132.287 338.51 130.109 338.51 127.433C338.51 125.952 337.842 124.626 336.793 123.735" stroke="#0C1740" stroke-width="2" stroke-miterlimit="10" stroke-linecap="round" stroke-linejoin="round"/>
<path d="M333.656 121.719V127.433" stroke="#0C1740" stroke-width="2" stroke-miterlimit="10" stroke-linecap="round" stroke-linejoin="round"/>
<path d="M371.704 29.704H295.766C295.197 29.704 294.735 29.242 294.735 28.6728V21.5478C294.735 20.9785 295.197 20.5165 295.766 20.5165H371.704C372.273 20.5165 372.735 20.9785 372.735 21.5478V28.6728C372.735 29.242 372.274 29.704 371.704 29.704ZM371.532 34.141H366.563C366.227 34.141 365.954 33.868 365.954 33.5313V32.6875C365.954 32.3508 366.227 32.0778 366.563 32.0778H371.532C371.869 32.0778 372.142 32.3508 372.142 32.6875V33.5313C372.141 33.8688 371.869 34.141 371.532 34.141Z" fill="#0C1740"/>
<path d="M362.641 34.141C362.072 34.141 361.61 33.679 361.61 33.1098C361.61 32.5405 362.072 32.0785 362.641 32.0785C363.211 32.0785 363.673 32.5405 363.673 33.1098C363.673 33.6798 363.211 34.141 362.641 34.141Z" fill="#2AD142"/>
<path d="M346.61 122.517C347.568 122.517 348.345 121.74 348.345 120.782C348.345 119.824 347.568 119.047 346.61 119.047C345.652 119.047 344.875 119.824 344.875 120.782C344.875 121.74 345.652 122.517 346.61 122.517Z" fill="#0C1740"/>
<path d="M346.61 122.048C347.309 122.048 347.876 121.481 347.876 120.782C347.876 120.083 347.309 119.516 346.61 119.516C345.911 119.516 345.344 120.083 345.344 120.782C345.344 121.481 345.911 122.048 346.61 122.048Z" fill="#1F2F63"/>
<path d="M272.228 237.536H194.228V231.219C194.228 229.033 195.999 227.262 198.185 227.262H268.271C270.456 227.262 272.228 229.033 272.228 231.219V237.536ZM144.848 237.536H129.848V231.219C129.848 229.033 131.619 227.262 133.805 227.262H140.891C143.076 227.262 144.848 229.033 144.848 231.219V237.536ZM165.788 237.536H150.788V231.219C150.788 229.033 152.559 227.262 154.745 227.262H161.831C164.016 227.262 165.788 229.033 165.788 231.219V237.536ZM293.168 237.536H278.168V231.219C278.168 229.033 279.939 227.262 282.125 227.262H289.211C291.396 227.262 293.168 229.033 293.168 231.219V237.536ZM314.858 237.536H299.858V231.219C299.858 229.033 301.629 227.262 303.815 227.262H310.901C313.086 227.262 314.858 229.033 314.858 231.219V237.536ZM335.798 237.536H320.798V231.219C320.798 229.033 322.569 227.262 324.755 227.262H331.841C334.026 227.262 335.798 229.033 335.798 231.219V237.536Z" fill="#B7B7B7"/>
<path d="M340.841 249.949H125.254C121.826 249.949 119.048 247.17 119.048 243.743C119.048 240.315 121.826 237.536 125.254 237.536H340.841C344.269 237.536 347.048 240.315 347.048 243.743C347.048 247.17 344.269 249.949 340.841 249.949Z" fill="#D3D3D1"/>
<path d="M272.228 237.536H194.228V231.219C194.228 229.033 195.999 227.262 198.185 227.262H268.271C270.456 227.262 272.228 229.033 272.228 231.219V237.536ZM144.848 237.536H129.848V231.219C129.848 229.033 131.619 227.262 133.805 227.262H140.891C143.076 227.262 144.848 229.033 144.848 231.219V237.536ZM165.788 237.536H150.788V231.219C150.788 229.033 152.559 227.262 154.745 227.262H161.831C164.016 227.262 165.788 229.033 165.788 231.219V237.536Z" stroke="#0C1740" stroke-width="6" stroke-miterlimit="10" stroke-linecap="round" stroke-linejoin="round"/>
<path d="M187.556 237.536H172.556V231.219C172.556 229.033 174.327 227.262 176.513 227.262H183.599C185.784 227.262 187.556 229.033 187.556 231.219V237.536Z" fill="#B7B7B7"/>
<path d="M187.556 237.537H172.556V231.219C172.556 229.033 174.327 227.262 176.513 227.262H183.599C185.784 227.262 187.556 229.033 187.556 231.219V237.537ZM293.168 237.537H278.168V231.219C278.168 229.033 279.939 227.262 282.125 227.262H289.211C291.396 227.262 293.168 229.033 293.168 231.219V237.537V237.537ZM314.858 237.537H299.858V231.219C299.858 229.033 301.629 227.262 303.815 227.262H310.901C313.086 227.262 314.858 229.033 314.858 231.219V237.537V237.537ZM335.798 237.537H320.798V231.219C320.798 229.033 322.569 227.262 324.755 227.262H331.841C334.026 227.262 335.798 229.033 335.798 231.219V237.537V237.537ZM340.841 249.949H125.254C121.826 249.949 119.048 247.17 119.048 243.743C119.048 240.315 121.826 237.537 125.254 237.537H340.841C344.269 237.537 347.048 240.315 347.048 243.743C347.048 247.17 344.269 249.949 340.841 249.949Z" stroke="#0C1740" stroke-width="6" stroke-miterlimit="10" stroke-linecap="round" stroke-linejoin="round"/>
<path d="M357.395 249.949C357.395 240.857 364.765 233.488 373.856 233.488C382.946 233.488 390.317 240.858 390.317 249.949H357.395Z" fill="#D3D3D1"/>
<path d="M357.395 249.949C357.395 240.857 364.765 233.488 373.856 233.488C382.946 233.488 390.317 240.858 390.317 249.949H357.395Z" stroke="#0C1740" stroke-width="6" stroke-miterlimit="10" stroke-linecap="round" stroke-linejoin="round"/>
<path d="M373.855 235.089V240.054" stroke="#0C1740" stroke-width="6" stroke-miterlimit="10" stroke-linecap="round" stroke-linejoin="round"/>
<path opacity="0.72" d="M118.241 177.679L177.091 62.179H148.762L89.9116 177.679H118.241Z" fill="#192859"/>
<path opacity="0.72" d="M153.482 177.679L212.332 62.179H198.168L139.318 177.679H153.482Z" fill="#192859"/>
<path d="M300.517 117.995C299.433 117.475 298.348 117.676 297.264 117.932C297.264 116.847 297.264 115.763 297.264 114.678C298.348 114.422 299.433 114.221 300.517 114.742C300.517 115.826 300.517 116.911 300.517 117.995Z" fill="#67C18B"/>
<path d="M300.517 121.782C299.433 121.261 298.348 121.462 297.264 121.718C297.264 120.633 297.264 119.549 297.264 118.464C298.348 118.208 299.433 118.008 300.517 118.528C300.517 119.613 300.517 120.697 300.517 121.782Z" fill="#E5E56A"/>
<path d="M296.729 121.845C295.645 122.101 294.56 122.302 293.476 121.781C293.476 120.697 293.476 119.613 293.476 118.528C294.56 119.049 295.645 118.848 296.729 118.592C296.729 119.676 296.729 120.761 296.729 121.845Z" fill="#4988E2"/>
<path d="M296.729 118.059C295.645 118.315 294.56 118.516 293.476 117.995C293.476 116.911 293.476 115.826 293.476 114.742C294.56 115.262 295.645 115.061 296.729 114.806C296.729 115.89 296.729 116.975 296.729 118.059Z" fill="#E87060"/>
<path opacity="0.28" d="M302.75 116.875H311.687" stroke="#0C1740" stroke-width="2" stroke-miterlimit="10" stroke-linecap="round" stroke-linejoin="round"/>
<path opacity="0.28" d="M302.75 119.562H309.655" stroke="#0C1740" stroke-width="2" stroke-miterlimit="10" stroke-linecap="round" stroke-linejoin="round"/>
</svg>
