<svg width="75" height="75" viewBox="0 0 75 75" fill="none" xmlns="http://www.w3.org/2000/svg">
<path fill-rule="evenodd" clip-rule="evenodd" d="M37.0243 1.78223H37.3358C46.2804 1.78223 53.5295 9.03136 53.5295 17.976C53.5295 26.9206 46.2804 34.1698 37.3358 34.1698H37.0243C28.0797 34.1698 20.8306 26.9206 20.8306 17.976C20.8306 9.03136 28.0797 1.78223 37.0243 1.78223ZM71.6437 69.6369V58.9622C71.6437 58.9622 59.1524 45.0521 38.8236 45.0521C38.2873 45.0521 37.7337 45.0694 37.1973 45.0867C36.661 45.0694 36.1247 45.0521 35.571 45.0521C15.225 45.0521 2.75098 58.9622 2.75098 58.9622V70.7442H71.6437V69.6369Z" fill="black"/>
</svg>
